<svg id="Layer_1" data-name="Layer 1" xmlns="http://www.w3.org/2000/svg" viewBox="0 0 2000 1000">
    <defs>
        <style>.cls-1{fill:#fff;}</style>
    </defs>
    <title>Artboard 1</title>
    <path class="cls-1"
          d="M218.21,171h150.6c73.8,0,117,54.6,117,115.2,0,67.21-50.4,115.21-117,115.21h-63V531h-87.6Zm65.4,343.21V384.6H370c54.6,0,93.6-42.61,93.6-100.21,0-51.6-33.6-96.6-93.6-96.6H240.41V514.2Zm0-286.21h79.2c34.2,0,53.4,26.4,53.4,57,0,33-19.2,57.6-53.4,57.6h-79.2Zm.6-33.6h90c6.6.6,15,1.8,21,3h-111Zm0,12h131.4l4.2,3H284.21Zm0,12h147l3,3h-150Zm0,132h150l-3,3h-147Zm0,12h136.2l-5.4,3H284.21Zm0,12H397a142.88,142.88,0,0,1-15.6,3h-97.2Zm76.2-48.61c22.8,0,35.4-21,35.4-42,0-19.8-12-37.8-35.4-37.8h-54.6v79.8Zm36.6,12.6h45.6l-2.4,3h-48Zm-1.2-108h45.6l2.4,3H400Zm13.8,96h39.6l-1.8,3h-40.2Zm-1.2-84H448l1.2,3h-39Zm8.4,72h36.6l-1.2,3H415Zm-1.2-60h37.2l1.2,3h-36.6Zm4.2,12h36v3H421Zm.6,36h36l-1.2,3h-35.4Zm1.8-12h35.4l-.6,1.8v1.2h-35.4Zm0-12H457v3h-34.8Z"/>
    <path class="cls-1"
          d="M620.21,159h15.6l176.4,372h-94.8l-18-37.2H557.21L539.81,531H445ZM523.61,514.2,624.41,297h8.4l99.6,217.21H781L628,191.39,476.21,514.2Zm-7.8-71.4h33l-1.8,3H514Zm5.4-12h33l-1.8,3H520Zm6-12h32.4l-1.8,3h-32.4Zm5.4-12H565l-1.8,3h-31.8Zm6-12H571l-1.8,3h-32.4Zm5.4-12h32.4l-1.8,3h-31.8Zm5.4-12h32.4l-1.8,3h-31.8Zm6-12h32.4l-1.8,3h-32.4Zm5.4-12h32.4l-1.8,3h-31.8Zm131.4,130.8-13.8-30H577l-13.2,30ZM566.81,334.79h32.4l-1.8,3H565Zm5.4-12h32.4l-1.8,3H571Zm6-12h32.4l-1.8,3h-32.4Zm0,156h97.2l1.2,3H577Zm5.4-168H616l-1.8,3h-31.8Zm0,156h87l1.8,3h-90Zm85.2-24.6L628,339.59h-1.2l-41.4,90.61Zm-79.2-143.41h76.2l1.8,3h-79.8Zm5.4-12h65.4l1.2,3h-67.8Zm5.4-12h54l1.8,3h-57Zm6-12H649l1.2,3h-45.6Zm5.4-12H643l1.8,3h-34.2Zm6-12h19.8l1.2,3H616Zm5.4-12h8.4l1.8,3H622Zm4.8-10.2,1.2,2.4h-2.4Zm12.6,94.2h31.2l1.2,3h-30.6Zm5.4,12h31.2l1.8,3h-31.2Zm5.4,12h31.8l1.2,3h-31.2Zm5.4,12h31.8l1.8,3h-31.8Zm5.4,12h32.4l1.2,3H664Zm5.4,12H700l1.8,3h-32.4Zm5.4,12h33l1.2,3h-32.4Zm5.4,12h33l1.8,3h-33Zm39,12,1.2,3h-33l-1.8-3Zm5.4,12,1.8,3h-34.2l-1.8-3Zm6,12,1.2,3h-34.2l-1.8-3Zm5.4,12,1.8,3h-34.8l-1.8-3Zm6,12,1.2,3H706l-1.8-3Z"/>
    <path class="cls-1"
          d="M832.61,171h87.6V396.6c0,48,22.8,64.8,53.4,64.8,33.6,0,54.6-16.8,54.6-64.8V171h88.2V409.8c0,85.2-63.6,133.2-142.8,133.2-82.2,0-141-50.4-141-133.2Zm141,355.21c66.6,0,120.6-42,120.6-116.4v-222h-43.8V396.6c0,60.6-29.4,81.6-76.8,81.6-43.2,0-75.6-21-75.6-81.6V187.79h-43.2v222C854.81,482.4,904.61,526.2,973.61,526.2ZM860.81,321H892v3h-31.2Zm0,12H892v3h-31.2Zm0,12H892v3h-31.2Zm0,12H892v3h-31.2Zm0,12H892v3h-31.2Zm0,12H892v3h-31.2Zm0,12H892v3h-31.2Zm0,12H892l.6,3h-31.8Zm0,12h31.8l1.2,3h-33Zm1.2,12h33l1.2,3h-33.6Zm2.4,12h34.8l1.2,3H865Zm3.6,12h36.6l3,3h-39Zm5.4,12h41.4l3.6,3h-43.2Zm59.4,12,7.2,3H883l-2.4-3ZM1057,489l-3.6,3h-159l-3-3Zm-16.2,12-4.8,3H911.21l-4.2-3Zm-24,12-11.4,3h-64.2l-10.8-3Zm0-36h50.4l-2.4,3H1009Zm17.4-12h40.2l-1.2,3h-42Zm9.6-12h36.6l-1.2,3h-37.8Zm5.4-12h35.4l-1.2,3H1048Zm4.2-12H1087l-1.2,3h-33.6Zm1.8-12h33l-.6,3h-33Zm.6-12h32.4v3h-32.4Zm.6-84h31.8v3h-31.8Zm0,12h31.8v3h-31.8Zm0,12h31.8v3h-31.8Zm0,12h31.8v3h-31.8Zm0,12h31.8v3h-31.8Zm0,12h31.8v3h-31.8Zm0,12h31.8v3h-31.8Z"/>
    <path class="cls-1"
          d="M1174,171h88.2V455.4h156.6V531H1174ZM1396.6,514.2v-42H1240V187.79h-43.8V514.2ZM1207,504h183.6v3H1204Zm12.6-12h171v3h-174Zm12.6-12h158.4v3h-162Z"/>
    <path class="cls-1"
          d="M1439.2,165h84l-103.8,149.4h-7.8Zm57,14.4h-43.8l-18,86.4Zm-49.8,55.2h4.8l-3.6,6h-2.4Zm4.2-12.6h8.4l-3,3.6h-6.6Zm1.2-12h14.4l-2.4,3.6h-12.6Zm3.6-12.6h20.4l-3,3.6h-18.6Zm1.8-11.4h28.2l-2.4,3h-26.4Z"/>
    <path class="cls-1"
          d="M1622.79,425.4c0,21,16.8,37.8,37.2,37.8,22.2,0,36-12.6,36-31.2,0-27-35.4-34.8-64.8-45-60.6-21.6-94.2-49.8-94.2-111.61,0-63.6,54.6-116.4,122.4-116.4,79.8,0,117.6,51,122.4,117.6H1699c0-20.4-12.6-37.2-37.2-37.2-19.2,0-37.8,11.4-37.8,34.8,0,27,33,31.8,63.6,40.8,64.2,19.21,94.2,55.21,94.2,111.61,0,63.6-54,116.4-121.8,116.4-78.6,0-123-52.8-123-117.6ZM1660,526.2c55.8,0,101.4-45,101.4-99.6,0-60.6-36-82.81-91.2-98.41-35.4-10.2-66-18.6-66-54,0-31.2,23.4-51.6,55.8-51.6,37.2,0,49.8,22.2,55.2,37.2h45c-3.6-35.4-30-84-100.2-84-55.8,0-102.6,45-102.6,99.6,0,44.4,16.8,72.6,82.8,96,34.2,12.6,75.6,21.6,75.6,60.6,0,31.8-27.6,48-55.8,48-30.6-.6-49.8-18-55.2-37.8H1558C1559.19,487.2,1603,526.2,1660,526.2Zm-96.6-257.41h34.8v3h-34.8Zm0,12h34.8l.6,3h-35.4Zm2.4-24.6h34.8l-1.2,3.6h-34.8Zm-1.2,37.2h36l1.2,3h-36.6Zm3,12h40.2l-.6-.6,3.6,3.6h-42.6Zm1.2-61.2h36.6l-1.8,3h-35.4Zm6-12.6h41.4l-4.2,3.6h-39Zm-1.2,86.4h48.6l4.8,3h-51.6Zm9-98.4h52.8l-6.6,3h-48.6Zm.6,110.4h69l11.4,3h-77.4Zm10.8-122.4h66v3h-69.6Zm3,134.4h94.2l9,3.6h-96.6Zm15-147h48v3h-52.8Zm105,159.6,3.6,3h-95.4l-4.8-3ZM1647.39,183H1660v3h-27Zm85.8,183.6,3,3.61H1654l-9-3.61Zm-73.2,123h68.4l-3,3H1660Zm0,12h54l-4.2,3H1660Zm0,12.6h30.6l-11.4,3H1660Zm83.4-135,1.2,3h-58.2l-6.6-3Zm-46.8,97.8h42.6l-1.8,2.4-.6,1.2h-47.4Zm52.2-85.8,1.2,3h-43.8l-3.6-3Zm-38.4,73.8h35.4l-1.8,3h-36.6Zm3-61.2H1753l1.2,3h-39Zm4.8,48.6h33L1750,456h-33.6Zm1.2-36.6h35.4v3H1720Zm1.8,24.6h33l-.6,3h-33Zm.6-12h33.6l-.6,3h-33Z"/>
    <path class="cls-1"
          d="M229.62,646.47c.57.85.86.85,1.71.85,4.29-.85,7.15,2.29,10.3,4a8,8,0,0,1,4,6.57c.29,6,.29,11.73,0,17.44v1.72c.86,10.29-.28,20.87,1.43,31.45a248,248,0,0,1,4,38.89,4.81,4.81,0,0,0,1.15,3.43c6.29-.86,12.87-2,19.44-3.14.29,0,.57,0,.57-.29,3.44-4.57,8.58-2.57,13.16-3.43h2.28c5.44-.57,4.87-.86,6.3-6,1.71-6.3-.58-12.3,0-18.59,2-19.73.28-39.46.85-59.48,0-2.28-.57-4.86-.85-7.43-.29-1.72,0-3.72,1.43-4.29,2.57-.86,3.14-3.43,6-3.43,2.29.29,2.86,2.29,3.14,4,1.15,4.29,1.43,9.15,1.72,13.73a36,36,0,0,0,.29,5.72c.57,6.57,1.43,13.15,1.43,19.73.28,6.86,0,13.15.85,20,0,.57.58,1.15,2,1.43.57-16-.86-46.32-.86-49.75,0-6.58,5.14,7.72,5.14,12.58.58,10.58.86,20.87,2,31.17,0,2.28-.58,9.43-.29,11.72.29,10-.29,20,.86,30,.57,6.58.86,12.87-.29,19.45-.28,1.71.86,3.43,1.15,5.14,1.14,7.72,2,15.73,1.14,23.45v3.15c1.71,6,1.43,12.29,1.71,18.58.29,3.43-.57,7.15-.28,10.87,0,2.29-1.43,4.57-3.43,6.29a12.62,12.62,0,0,0-3.43,6c-.57,1.43,2.86,1.72.85,3.15-2.28,2-4.28,4.29-7.14,5.15a24.67,24.67,0,0,0-5.72,2.57c-4.29-2.29-5.44-6-4.86-10.58a4.25,4.25,0,0,0,.28-2.58c-1.71-8-1.14-16.29-1.14-24.3.28-4.86-1.14-9.72-.86-14.58a132.83,132.83,0,0,0-.86-15.16c-.28-2.57-.85-5.72,1.72-8,.28-.29.28-1.43.28-1.43-3.43-2.58-1.71-6-2-8.87-.28-1.43-.85-2.28-2.28-2.28a71.05,71.05,0,0,0-7.72.28c-9.44.29-19.16-.28-28.88,1.15a8.27,8.27,0,0,0-2.58.57c-1.14,2.57-.28,4.86,0,7.43,0,3.15,1.15,6,0,9.44a4,4,0,0,0,.29,2.57c.86,3.15.57,5.72,0,9.44a80.55,80.55,0,0,0-1.15,16c0,4.29.58,7.15.29,11.44-.29,2.28-.86,6.57-.29,8.29,1.43,3.43,0,6.86.58,10.29.28,1.72-.86,2.58-2.58,2.58-5.72.57-15.44,4.29-17.15-.29-.29-.86-1.72-.57-2.58,2-1.43,4-7.72,2.29-12,2.58a10.35,10.35,0,0,1-1.71-5.72c0-8-.86-15.73-1.15-23.45-.28-5.72.29-11.44.29-16.87-.57-8.86,0-20.3,0-29.45,0-2.86-.57-2.86-3.43-3.72-3.15-1.14-6.86-.57-8.86-4,2.28-1.43,5.14-2,7.43-2.58,3.72-1.14,4.57-2.57,4.29-6.29a327.65,327.65,0,0,1-1.15-37.45c0-18.59.29-37.18,0-56,0-2,.29-4-.57-5.72-1.14-2.57-.57-5.14.29-7.72.86-1.71,1.43-2.28,2.86-2.57C221.61,643,226.19,643,229.62,646.47Z"/>
    <path class="cls-1"
          d="M380.87,722.24c0,1.43-1.71,2.29-1.71,4,2.28.29,5.14,2.29,5.72-2.29,0-.85,1.14-.57,1.71-.85,8.29-.86,14.87,2.86,21.45,7.14a1.29,1.29,0,0,1,.85,1.15c2,4.86,5.72,8.29,9.15,12.29,3.72,4.58,4,10.3,5.72,15.44.57,2.86.86,5.72,1.15,8.58,0,6,1.43,12,2.28,18,.58,5.43,1.43,10.86-1.71,16a15.42,15.42,0,0,0-1.72,7.15c.29,6.57-2,12-5.14,17.44-2.58,4.86-5.15,9.15-8,14-2.29,3.72-6.29,4.58-10,6-4.57-4.87,2.29-4.58,2.86-7.15-1.71-.86-3.43.28-4.57.85-4.58,2.86-9.73,4.29-14.3,6.58a11,11,0,0,1-11.44-.28A103,103,0,0,1,356.28,834,46,46,0,0,1,344,812.59c-2.58-11.15-2-22-1.43-33.16,0-10.58,2.57-20.88,5.72-30.89C352,738,357.43,729.67,368,725.38A43.64,43.64,0,0,0,374.3,722,6.1,6.1,0,0,1,380.87,722.24Zm-1.43,14.3c-.85,4-2.86,7.43-3.71,11.43-1.15,4-2.58,7.72-2,12.3.29,5.72,1.15,11.72.29,17.44a44.73,44.73,0,0,0-.29,12.3c0,3.14.29,6.57,0,9.72-.85,10.58,1.15,20.58,6.87,29.73.57,1.15.85,2.58,2.57,2,4-1.43,4.86,1.71,6,4.57,2.58-.57,4.29-2,4.87-3.43,5.43-6.29,7.72-13.73,8.57-21.45,1.15-11.72,1.72-23.44,2-35.17L404,752c-.28-6-2.57-11.44-7.43-15.16-2.57-2-5.15-3.14-8-1.43A14.41,14.41,0,0,1,379.44,736.54Zm16.3,112.94a1.79,1.79,0,0,0,1.43-2.57c-.28-1.43-1.14-.86-2.57-.57-.86.57-1.72.57-2.58,2.28A8.88,8.88,0,0,0,395.74,849.48Z"/>
    <path class="cls-1"
          d="M471.23,736.82a5.22,5.22,0,0,0,.57,2c0,.29.29.57.57,1.15,3.72-2.86,7.15-6,10.87-8.87,7.15-5.43,13.44-6.57,21.73-4.57a23.24,23.24,0,0,1,12.58,8c-1.43,2.86-4,3.15-6.29,2-2-.86-3.15-.86-4.29.57-2,2.28-5.15.86-6.58,4l-1.71,1.43c-8.29,3.15-14,7.72-18,16.3-1.43,3.43-.85,6.57-3.14,9.72-1.72,2-2.29,4.29-2,7.43.28,5.15.57,10.58.57,15.73.28,11.44,1.43,22.59,1.71,33.74.29,4.86,0,9.44,0,14.3,0,2.57-4,11.72-5.43,13.15-3.71-4.57-6.86-4.86-11.15-.57-2,2-3.15-.57-4.57-.29-1.15.86,0,1.72-.29,2.58h-1.14c-5.72-5.72-8.3-12.58-8.3-20.88.58-12-.57-24-1.71-36.31a75.2,75.2,0,0,1,.28-16,107,107,0,0,0,.86-21.45c0-3.14.57-6.29.57-9.43A53.49,53.49,0,0,0,445.49,734c-.57-.86-.57-2.29.86-2.57,1.43-.57,1.43,1.14,2.29,1.71,2.57-1.43,1.72-4,1.72-6.29,2.28-1.71,5.14-1.43,6.86-3.71.57-.86,1.71-.58,2.57,0C465.22,726.24,470.94,729.1,471.23,736.82Zm44.32,6c-.29.28-.86.57-.86.28a12.27,12.27,0,0,0-11.44.86,12.88,12.88,0,0,1-7.43,3.43c.86-2.29,2.86-2.57,4-3.72l1.72-1.43c1.71-.28,2.86-1.71,4.86-2.86C511,737.68,512.69,738.25,515.55,742.83Zm88.64-19.16c-2.29,2.86.86,6.57-7.72,7.15a5.33,5.33,0,0,0-5.15,3.43c-1.43,2.86-5.43,3.43-8,4.57-5.44,2.86-7.72,7.72-11.44,12-1.43,1.72-2.58,3.72-5.15,7.44a14.57,14.57,0,0,0-2.57,4.57c-1.15,2.57-1.15,5.72-2.58,7.44-5.71,6.29-3.43,13.72-4.28,20.58a9.46,9.46,0,0,0,0,2.86c-2,13.16-1.15,26.31-2.86,39.46a19,19,0,0,1,0,4c-.58,3.44.28,7.15-3.72,9.44-1.72.86-1.15,2.86-1.43,4.58-1.15,4.86-1.43,6-7.15,3.71-4.57-2-8.86-5.14-12.87-8-2.86-1.72-3.43-4.86-3.14-8,2-24.88,1.43-49.75,2-74.63,0-10.58.57-21.16.57-31.74a10.34,10.34,0,0,0-.86-4.29c-1.14-4.29.58-6,4.58-6,3.72.28,7.43,1.43,10.86-1.15,1.15-.57,3.15,0,4.58,1.43,3.72,3.44,7.72,6.58,8.58,11.73a3.71,3.71,0,0,0,2.57,2.86c3.72-5.15,7.43-7.15,12-11.44,3.72-3.72,7.72-5.43,13.15-6.58,13.73-3.14,20.59-1.43,16.3-.28C592.75,720.81,607.05,720.24,604.19,723.67Zm-52.9,40.89c.57-6,.86-12,1.72-18,.28-3.71.28-7.15-2-10.58C549.29,745.69,549.86,755.12,551.29,764.56Z"/>
    <path class="cls-1"
          d="M631.06,645.32c-.28,2.58.86,3.43,3.15,5.43,6,5.44,7.72,10.58,1.43,15.73-2.86,2-4.86,6-9.44,5.15-2-2-5.14-.29-7.72-1.43-9.43-4.86-10.86-12.3-4.29-21.45,2.86-4,7.15-6.29,12.3-7.15C629.92,641.32,631.06,642.18,631.06,645.32ZM638.5,732c.28.86.28,2,1.14,2.57,3.15-2.28,4-2,4,1.72a7.43,7.43,0,0,1-.29,4.29,17.46,17.46,0,0,0-.29,8.58c1.43,12,1.15,24,1.43,36,.29,7.44,1.15,14.59,2,22,.28,5.15,1.14,10.3,1.42,15.44.58,5.72-.85,10,4.58,7.72,6-2.86,7.15-2.57,14.87-8,2.57-1.72,8-6,10.86-6.87a15.58,15.58,0,0,0,4.29-2.86c2.58-2,5.44-4,9.15-1.14a31.21,31.21,0,0,1-6.86,6.86c-4,3.15-6.29,4.86-9.15,9.44-1.43,2.57-2.57,2.86-5.15,3.14-1.71,0-3.71,2.29-5.14,3.44-1.72,1.42-3.72,1.71-5.15,3.14a21,21,0,0,1-3.15,3.72,17,17,0,0,1-5.14,2.29l-5.43,1.71a9.21,9.21,0,0,1-4,.86c-.86,0-1.71-.29-2.57-.29-1.15.58-1.72,1.72-2.86,2s-3.72-.57-5.15-1.42c-2.28-1.15-5.72-1.43-8.29-3.72-1.43-1.15-3.43-.86-4.58-1.72-4.28-4.57-4.57-10.29-5.43-16-.86-7.43-.57-15.15-.28-22.88.28-9.15.57-18.58,1.43-27.73a135,135,0,0,0,.85-24c-.57-5.72,1.43-11.44,0-17.44-.28-2,2-4,3.43-5.43a16.14,16.14,0,0,1,9.44-3.72C634.5,723.67,637.07,726.24,638.5,732Z"/>
    <path class="cls-1"
          d="M694,667.62c1.71,2.29,3.43,4.87,6,6.87.86.57,1.15,2,1.43,3.14.86,7.15,2.86,14,2.57,21.16-.85,14.3.58,28.6,0,42.89,0,.57,0,1.15,1.15,1.72,8.86-8,19.16-12.3,30.31-15.44,6-1.72,11.43-.57,14.29,5.14,2,.29.86-2.57,2.86-2,1.15.57,2,1.15,2,2.29a12.79,12.79,0,0,0,1.14,5.72c.57,1.14.86,2.57,2.29,2.86,3.14.57,3.43,3.14,3.71,5.14a153.76,153.76,0,0,1,.86,38c0,.58-.28,1.15,0,1.43,2,6.29.29,12.59-.57,18.59-1.14,6.58-2,12.87-4.86,19.16a68,68,0,0,1-10,15.44c-3.43,4-7.43,6-12,7.43-1.14.29-2.57.86-3.72.29-4.28-2.57-9.15-2-13.43-4.29a13.38,13.38,0,0,1-3.72-3.15c-2-2.28-3.15-5.71-6-7.72-2.57,4.86.58,10.3-2.57,14.59-2.86.57-2.29-2.58-4-3.43-.29,1.71,0,3.43-1.72,4.86-4.86-3.15-8.86-8.3-14.58-10.58-1.43,1.14,0,3.43-2,4.57a7.65,7.65,0,0,1-4.29-8c.57-5.44-1.15-10.58-1.15-16a398.15,398.15,0,0,1,0-41.17c.29-5.72,0-11.44,0-17.16.29-19.73.29-39.46.29-58.9,0-8.58-.29-16.87,0-25.16,0-5.15.29-5.15,4.86-6.58a27,27,0,0,0,6.58-2.86C691.68,665.62,692.82,665.91,694,667.62ZM720,742a70.31,70.31,0,0,0-11.73,10.86,14.89,14.89,0,0,0-4,10.58c0,9.73,2,19.16,1.43,28.88-.29,6.29,1.72,12.3,1.43,18.59-.29,4.57,0,9.15,0,14,4.57,1.43,8.86,4.29,14,6.58,2.86-4.29,5.43-8.3,6.86-12.59,3.72-9.14,5.15-18.87,6.29-28.59a266.51,266.51,0,0,0,2-40c0-3.15-.86-6.29-1.15-9.44-.28-1.14-.57-2.28-2-2.28C728.57,739.11,723.7,739.11,720,742Z"/>
    <path class="cls-1"
          d="M797.47,657.62a34.63,34.63,0,0,1,4.58,12.86c.29,3.43,0,6.87,2.57,10.3.86-4.58-1.14-8.87,0-12.87,2-.29,3.15,1.14,2.86,2.57,0,4.86,2.58,8.87,3.72,13.16,3.43,12.29,2.86,25.16,3.72,46.32.57,11.44-.86,26-1.15,37.17s-1.14,22.3.58,33.45c1.14,6,.85,12,1.42,18,.29,6-.57,11.72,1.72,17.44,4-1.14,4.29-.86,7.43-3.14.86-.58.86,1.14,8.3-3.44,2.86-1.71,6.57-3.14,7.43-4,4.58-4.57,12-7.43,17.73-11.15a6.3,6.3,0,0,1,6-.29c-5.43,6.87-10.86,12.87-18.58,17.16-7.72,4.57-9.44,6.86-16.59,11.72-8.29,5.72-6,2.86-15.72,4.86-14.59,3.15-26-5.71-28.6-18.58A180.46,180.46,0,0,1,782,792c.29-14.59,2.86-29.17,2-43.75-1.15-20.3-.58-45.75-.29-62.34.29-8.86-.57-17.44-1.14-26.3,0-1.43-1.43-3.72.28-4.29,2.58-1.14,4.58-4,7.72-2.57A11.74,11.74,0,0,1,797.47,657.62Zm10.3,179.56a2.29,2.29,0,0,0,3.72.58c-.29-2.58-.86-7.15-2.29-10C806.62,830.32,806.62,834.9,807.77,837.18Z"/>
    <path class="cls-1"
          d="M879,724.24c-.57,2-5.43,1.43-6,3.43,1.14,1.14,2.57.57,3.72-.28,6.29-3.44,11.15-4.87,18.87-2,1.43.58,3.14,1.15,4.29,1.72a53.34,53.34,0,0,1,5.72,2.86l3.14,2c4,2.57,9.44,14.3,10.3,23.45a40.49,40.49,0,0,1-2.29,18.3c-1.15,2.86-1.72,6.29-5.43,7.43-1.15.29-1.15,1.14-1.43,2-4.58,2.58-6.87,5.44-13.44,8-3.15,1.14-5.72,2.86-8.58,4-4,1.43-7.15,4-11.72,6.58,2.28,6.58,3.43,12.87,7.14,18.3,2.29,3.14,4.29,3.72,6.58,6.86,3.14,4.29,6,5.15,10.87,3.43,14.29-5.43,19.15-4.57,32-13.44,4.29-2.86,4.29-4,9.44-5.43,2.86-1.14,4.57-2.57,7.15-4.29.85-.57,1.71-1.71,3.43-1.14.85,6.29-2.86,6.86-6,9.72-1.43,1.14-2.86,1.72-4,3.72-2.86,2.86-13.73,9.72-14.87,10.29-6.29,3.15-3.72,1.43-9.44,5.72-1.43.86-5.71,3.14-7.14,4.29-4.58,3.14-9.44,3.14-11.73,4.86-5.43,4-14,4-20.59,4.29a18.57,18.57,0,0,1-12.86-5.15c-6.86-6.58-12-12.58-14.87-21.44a16.25,16.25,0,0,1-.86-2.86c-1.14-4.58-2.29-6.58-2.57-11.15,0-2.29-.29-10.3-.57-15.16A126.17,126.17,0,0,1,849.8,762c2.29-10.29,4.57-20.58,11.15-29.16,3.72-4.58,8-7.72,13.73-8.87C875.53,724,878.39,723.1,879,724.24ZM870.1,825.46c3.15,5.15,6,10.29,11.72,12.87a4.27,4.27,0,0,1,.86-1.15c-2.29-2.85-4.29-6-6.86-8.57-2.86-2.86-3.15-6.87-5.43-10.3C868.38,820.89,868.67,823.17,870.1,825.46Zm10-87.78c-3.15,4-4.29,11.72-4.58,16.58-.85,10,.58,20.59-.57,30.31,0,2-.28,4.86.29,7.15,2-.28,4.86-3.43,6-4,4.29-2.86,7.44-6,11.15-8.29,4.86-3.15,4.29-7.44,5.72-14,.29-.85.29-3.14.57-4,.86-4,0-9.72-.85-12.29a67.51,67.51,0,0,1-2.86-9.73c-.57-2.28-1.72-5.14-3.43-6C885.26,730.53,884.11,732.25,880.11,737.68Zm8.58,100.08c-1.15-2.58-2.58-3.72-4.58-4C885,835.75,885.83,837.18,888.69,837.76Z"/>
    <path class="cls-1"
          d="M1046.8,640.75c11.15,1.71,22.31,4,33.17,6,3.15.57,6.58.57,9.72,1.43,12,3.43,21.45,10.29,26.31,22a75.33,75.33,0,0,1,3.43,11.44c.29,1.43.57,2.57,2.58,2.57s2,1.71,2.57,3.14a80.46,80.46,0,0,1,3.43,34.89c-.86,6-1.72,12-1.14,18.3a8.23,8.23,0,0,1-.58,2.57c-3.71,15.44-8.86,30.6-16.87,44.32-.85,1.15-1.71,2-1.71,3.15-1.15,9.15-9.44,13.15-13.73,19.73a2.17,2.17,0,0,1-2.57.85c-2-.57,0-2.57-1.43-3.71-2.29,3.43-4,6.57-6.58,9.43-4.29,5.15-8.29,10.3-13.15,14.87a91.47,91.47,0,0,1-14.87,11.15c-4.57,2.86-4.86,4-4.57,9.15-4.86,0-9.73-.57-14.87,1.15-3.15,1.43-7.72,1.71-10-2.58-1.72.58-2,2-2.86,2.86-2.29,1.43-3.72,4-7.43,2.86-4-1.43-5.72-3.71-5.44-7.43.58-9.15-.57-18,.29-27.17a144.23,144.23,0,0,0-.29-29.45,371.42,371.42,0,0,1-2-40c.29-8.29-.28-16.58-.28-24.59,0-12.58-.58-24.88,1.14-37.17.86-6-.86-12-.29-18,.29-2.29,0-4.29,1.72-6.29,2-2,1.14-5.44,1.14-8.3.29-1.71,0-3.43,0-6a47.1,47.1,0,0,1-6.29,0c-3.14-.29-3.14-.57-1.43-4,2.58-5.15,7.15-5.15,11.73-4.87,2.86.29,5.72.58,8.29-.28.57-.29.57-.86.57-1.43-1.14-4.29-.86-4.58,3.43-3.43C1034.22,639.32,1040.51,639.6,1046.8,640.75Zm-9.43,16.58c3.14,5.43,1.43,11.72,3.71,17.16-.28,15.15.29,30,1.15,45.18.57,12,0,24.3,1.43,36.31,1.14,9.72.28,20,3.14,29.74a1,1,0,0,1,.29.85c-.86,8.3,1.14,16.3,1.43,24.59a14,14,0,0,0,1.14,6.58c4.86-5.72,8.29-12,12.3-18-2.29-.57-3.43,1.71-5.72,1.14a5,5,0,0,1,1.71-2.29c3.15-2.86,7.15-4.86,9.44-8.57a291.7,291.7,0,0,0,25.45-54,30.41,30.41,0,0,0,1.71-8.86c.29-7.15.86-14,.86-20.87.29-3.44.57-6.87-.28-10.3a84.6,84.6,0,0,0-15.73-31.16,12.35,12.35,0,0,0-2.86-2.58c-6-4.29-12.29-8.29-20.3-7.72-.57,0-.86-.28-1.43-.57-4.86-.29-9.44-1.43-14.3-1.14C1036.8,653,1035.65,654.47,1037.37,657.33Zm52,10c.28.57.86,1.14,1.43,2,.86-2.86.28-4-2-4C1088.26,666.2,1088.84,666.77,1089.41,667.34Zm34.88,45.18c1.43-7.15-.86-14-2.57-20.59C1120.58,699.08,1124,705.65,1124.29,712.52Z"/>
    <path class="cls-1"
          d="M1172,736.82a5.4,5.4,0,0,0,.57,2c0,.29.29.57.57,1.15,3.72-2.86,7.15-6,10.87-8.87,7.15-5.43,13.44-6.57,21.73-4.57a23.21,23.21,0,0,1,12.58,8c-1.43,2.86-4,3.15-6.29,2-2-.86-3.14-.86-4.29.57-2,2.28-5.15.86-6.58,4l-1.71,1.43c-8.29,3.15-14,7.72-18,16.3-1.43,3.43-.86,6.57-3.15,9.72-1.72,2-2.29,4.29-2,7.43.28,5.15.57,10.58.57,15.73.29,11.44,1.43,22.59,1.72,33.74.28,4.86,0,9.44,0,14.3,0,2.57-4,11.72-5.44,13.15-3.71-4.57-6.86-4.86-11.15-.57-2,2-3.14-.57-4.57-.29-1.15.86,0,1.72-.29,2.58H1156c-5.72-5.72-8.3-12.58-8.3-20.88.58-12-.57-24-1.71-36.31a75.2,75.2,0,0,1,.28-16,107,107,0,0,0,.86-21.45c0-3.14.57-6.29.57-9.43A53.49,53.49,0,0,0,1146.3,734c-.57-.86-.57-2.29.86-2.57,1.43-.57,1.43,1.14,2.29,1.71,2.57-1.43,1.72-4,1.72-6.29,2.28-1.71,5.14-1.43,6.86-3.71.57-.86,1.71-.58,2.57,0C1166,726.24,1171.75,729.1,1172,736.82Zm44.32,6c-.29.28-.86.57-.86.28a12.27,12.27,0,0,0-11.44.86,12.88,12.88,0,0,1-7.43,3.43c.86-2.29,2.86-2.57,4-3.72l1.72-1.43c1.71-.28,2.86-1.71,4.86-2.86C1211.78,737.68,1213.5,738.25,1216.36,742.83Z"/>
    <path class="cls-1"
          d="M1297.56,730.82c4.58,4.86,6.58,10.29,4.87,16.58v1.72c1.71,7.43,1.14,12.86,0,20.58-.58,2.29.57,4.58.57,6.87.28,9.72.86,19.73.28,29.45,0,3.72-1.43,10-1.71,13.72-.29,2.86.57,6.87,1.43,9.72,4.29.58,6.86-.85,10.29-3.71,9.72-3.43,21.16-16.3,26-19.16.29,3.43-1.14,7.43-4.86,12-2.86,3.14-11.44,9.72-14.58,12.58a110.64,110.64,0,0,1-15.16,10.58c-5.14,3.43-10.58,4.86-18.87,4.58-2.86,0-4.29-2.58-5.72-4.58a34.53,34.53,0,0,0-4.29-6.29,3.38,3.38,0,0,0-2.86,1.71c-.57.86-1.42,2.29-2.28,2.29-3.72.29-4.58,3.15-8.58,4.86-4.29,1.72-6,0-10.29.29-1.72,0-3.15,1.14-.29,1.14,6.58,0-1.14,2.29-9.72,1.72-4-.29-12.58-2.57-14.87-5.43-6.29-8-7.72-10-8-16.87l-.57-11.16c-.57-11.15,3.72-18.87,8.58-25.16,5.72-7.72,12.87-12,22.3-14.29,4.58-1.43,9.44-2,13.73-4.29,3.14-1.43,5.72,1.14,9.15,0,1.14-7.72,0-21.74-.57-29.46,0-4.57-1.43-5.71-5.72-4a60.68,60.68,0,0,1-23.74,4.86c-.85.29-2,0-2.57.57-5.72,4-9.44-1.71-14-2-.29-2,.57-2,1.14-2,7.44-2,14.87-4.86,19.73-5.43,6.29-.86,11.15-3.72,17.16-5.72a61.18,61.18,0,0,1,6.86-2,14.41,14.41,0,0,1,9.15,2c2.86,1.43,5.43,3.43,8.87,3.14.85-2-.58-2-2.29-3.14-2.29-.29-3.43-2-1.43-2C1289,725.1,1294.42,727.67,1297.56,730.82Zm-71.19,102.36c2,1.15,2.57,3.43,4.29,4.58,2,1.14,2.86,4,6.57,3.71-3.14-3.71-6.29-6.86-8.29-10.86-.57-1.15-2.86-5.15-2.86-1.15C1226.08,830.89,1224.65,832.32,1226.37,833.18Zm42-53.18c-1.14,1.43-1.43,2.28-2.86,2.28-.86,0-1.43-.28-3.15,1.15-2.85,2.29-3.14,3.14-6,5.15a16.43,16.43,0,0,0-6.29,7.72c-5.15,12.58-4,27.45.29,31.45,3.14,2.86,4.86,5.43,8.57,4,2.58-.86,8.87-4.57,11.44-5.43,1.72-.57,2-2.57,2-4.58a31.29,31.29,0,0,1,0-5.14c.57-5.15-1.71-9.72-.57-18.3.57-4-.57-7.44.29-11.44.85-3.43.28-5.15.28-8.86C1271.26,778.28,1269,779.14,1268.4,780Z"/>
    <path class="cls-1"
          d="M1448.82,718.81c-.86,2.86-.86,4-1.72,6.57-2.28,7.72-2.85,15.44-3.71,23.45-1.15,10.58-4.29,20.59-7.44,30.6a216.07,216.07,0,0,0-6.29,26.87c-1.43,8-4.57,15.44-6.86,23.16-1.14,4.58-4,8.58-5.15,13.44-.28,2-1.14,2.29-5.43,4.58a31.46,31.46,0,0,1-12-10c-1.72.86,0,2-1.14,2.86a19.14,19.14,0,0,1-10.3-11.72c-2-6.58-2.28-13.44-2.86-20-.85-10.29-1.14-20.3-1.71-30.59,0-1.15.28-2.58-1.15-3.72-1.71,1.71-2.57,4.29-3.14,6.58-3.72,14.29-9.44,28-11.72,42.89-.86,6.86-4,13.15-4.58,20a4.71,4.71,0,0,1-1.43,3.43c-3.72-1.43-3.72-1.43-6.29,1.72-2.86,4-3.43,3.72-8,1.71-5.71-2.28-8.29-6.29-9.72-12.58-1.71-6.57-2.28-13.44-3.14-20-.86-6-.86-12-2.58-17.73-3.43-11.44-4.86-23.45-6.86-35.17-1.71-10.58-3.43-21.16-5.72-31.45-.28-1.15-1.14-2.29-.28-3.72,2.57,1.14,1.14,4.57,3.43,6,.86-2.57-1.43-4.86-.86-7.72,3.72,1.72,5.72-2.28,9.15-2.28,1.14-5.15,5.72-3.15,8.86-3.44,4.86-.57,8.58,3.15,9.15,8A75.22,75.22,0,0,0,1351.6,742a83.92,83.92,0,0,1,2,14.58c.29,7.72,2.29,15.44,2.86,23.16.57,7.44,1.15,14.87,2.86,22.3l.86,5.72c2.29-2.28,2.57-5.14,3.43-7.43,2.29-7.72,4.58-15.44,7.15-23.16,2.86-8.58,6.58-17.16,8.86-26.31a15.22,15.22,0,0,0,.58-6.29,57.23,57.23,0,0,1-1.15-7.43c-.57-5.44,2-8.3,7.44-6.87a46.44,46.44,0,0,1,12,4.29,15.08,15.08,0,0,1,3.15,2.86c5.15,6.58,7.44,14.3,8.86,22.59a289.47,289.47,0,0,1,4.29,44.61c0,1.14-.28,2.29,1.15,2.86,1.43-1.15,1.43-2.86,2-4.29,4-11.44,6.58-22.88,10.86-34,1.15-3.14,1.43-6.29,2-9.43,1.43-8.3,4.86-16,6.29-24.31.57-2.86.85-5.72,1.71-8.58.29-1.71-.86-5.14,3.15-4.86a10.65,10.65,0,0,1,.57-1.71c0,.28.29-.86,2-2,1.43-.86,1.14-2.58,2.57-2.29A2.37,2.37,0,0,1,1448.82,718.81Z"/>
    <path class="cls-1"
          d="M1481.12,645.32c-.28,2.58.86,3.43,3.15,5.43,6,5.44,7.72,10.58,1.43,15.73-2.86,2-4.86,6-9.44,5.15-2-2-5.14-.29-7.72-1.43-9.43-4.86-10.86-12.3-4.29-21.45,2.86-4,7.15-6.29,12.3-7.15C1480,641.32,1481.12,642.18,1481.12,645.32Zm7.44,86.64c.28.86.28,2,1.14,2.57,3.15-2.28,4-2,4,1.72a7.43,7.43,0,0,1-.29,4.29,17.46,17.46,0,0,0-.29,8.58c1.43,12,1.15,24,1.43,36,.29,7.44,1.15,14.59,2,22,.29,5.15,1.15,10.3,1.43,15.44.58,5.72-.85,10,4.58,7.72,6-2.86,7.15-2.57,14.87-8,2.57-1.72,8-6,10.86-6.87a15.58,15.58,0,0,0,4.29-2.86c2.58-2,5.44-4,9.15-1.14a31.21,31.21,0,0,1-6.86,6.86c-4,3.15-6.29,4.86-9.15,9.44-1.43,2.57-2.57,2.86-5.15,3.14-1.71,0-3.71,2.29-5.14,3.44-1.72,1.42-3.72,1.71-5.15,3.14a21,21,0,0,1-3.15,3.72,17,17,0,0,1-5.14,2.29l-5.44,1.71a9.13,9.13,0,0,1-4,.86c-.86,0-1.71-.29-2.57-.29-1.15.58-1.72,1.72-2.86,2s-3.72-.57-5.15-1.42c-2.29-1.15-5.72-1.43-8.29-3.72-1.43-1.15-3.43-.86-4.58-1.72-4.28-4.57-4.57-10.29-5.43-16-.86-7.43-.57-15.15-.28-22.88.28-9.15.57-18.58,1.43-27.73a135,135,0,0,0,.85-24c-.57-5.72,1.43-11.44,0-17.44-.28-2,2-4,3.43-5.43a16.14,16.14,0,0,1,9.44-3.72C1484.56,723.67,1487.13,726.24,1488.56,732Z"/>
    <path class="cls-1"
          d="M1610.65,730.82l1.14,1.14c1.43,5.72,4.87,10.87,5.15,17.44,0,13.73,0,27.45-1.14,40.89-.57,6.86.28,13.73,0,20.3-.29,5.15,1.71,10,2.86,14.87.57,2.86,8.86,6,11.15,4.29,10-6.86,18-11.72,28-18.59a1.81,1.81,0,0,1,2.57,0c-1.43,3.72-2.86,10-7.14,12-4.87,2.58-9.73,5.72-12.87,10.87-2.29,3.72-4.58,4.86-8.58,6.86-3.15,3.15-4.57,3.72-9.15,5.15-2,1.43-4,3.14-7.43,3.43-8,.57-15.16-2.57-19.16-9.72-4.58-7.44-6.29-15.73-6.58-24-.57-9.44-.57-18.59-.28-28,0-14.58.28-27.74,3.43-42,.85-4,.28-6-.29-10s-3.72-6.29-7.43-2.58c-10.3,9.73-17.45,18.3-22.31,31.74-2.86,8.58-2.57,16.87-1.71,25.17a63.13,63.13,0,0,1,0,10.29c-.86,12.87-2,26-1.43,38.89,0,3.14-1.15,4.29-4.58,5.14a15,15,0,0,0-3.14,2c-4,2.85-7.15,2.28-10-2.29-.86-1.43-1.72-3.43-3.43-4.29-1.43.86-.57,2.29-1.14,3.43-2.58-1.14-3.15-3.43-4-5.72-2.29-6.58-4.29-13.15-4-20.3,0-13.15-.29-26-.29-39.17V727.67c0-4,.29-4,4-3.43a7.29,7.29,0,0,0,4.29,0,6.52,6.52,0,0,1,6.86,1.14c2.57,2,5.43,3.43,8,5.44a9.54,9.54,0,0,1,3.72,8.86c-.28,5.72.86,11.15,2,16.87a8.84,8.84,0,0,0,3.15-4.57c2.86-7.72,7.72-14.3,12.58-20.59,5.72-6.86,12.58-8.87,21.44-7.44C1601.21,724.81,1605.5,728.53,1610.65,730.82Z"/>
    <path class="cls-1"
          d="M1680.71,729.39c.85.85,2.28,1.14,3.43,1.71,7.43,2.29,12,7.15,13.15,15.16a8.57,8.57,0,0,0,.57,2.57,11.82,11.82,0,0,1,1.72.57c.28-6,1.14-11.72,0-17.44-.57-4,.57-5.43,4.29-4.29a24.76,24.76,0,0,1,10,6.29l1.71,1.72c2.29,0,.86-2.29,2.57-3.15,3.72,2.58,8,5.15,8.58,10.87l.86,15.15c.86,12.3,1.14,24.59,2,36.89.86,7.43.57,14.58.57,22a14.45,14.45,0,0,0,1.15,6.86c1.71.28,2.28-1.43,3.43-2,6.29-3.15,11.15-6.29,22-14.59,1.71-1.14,2-1.14,6.29-1.14-2,5.72-5.72,9.44-10.58,13.15-4.29,3.43-3.72,3.15-8.3,6.58a69.16,69.16,0,0,1-8,5.72,15,15,0,0,0-4.58,3.43c-1.71,1.71-2.86,3.72-1.71,6.29a18.55,18.55,0,0,1-.57,14.58,13.21,13.21,0,0,0-.58,4.86c.58,8.87-1.43,16.87-4.86,24.88-4,9.15-8.58,17.73-15.72,24.59-2,2.29-4,4.29-7.44,4.29-2.57,0-5.14,2-7.72,3.43-4.86,2.29-9.72,4.86-14.87,6.58-5.72,2-7.15,1.71-10.58-4a3.94,3.94,0,0,0-3.14-1.71c-5.72-.57-8.29-4.58-10.3-8.87-1.43-3.43-1.71-7.14-2.28-10.86-1.43-7.15,1.43-13.15,4.86-18.59,4.86-8.29,11.72-14.58,18-21.44,3.15-3.15,7.72-4.58,11.15-7.15a109,109,0,0,0,10.87-8.58c2.57-2.29,6.86-2.86,7.72-6,.86-2.86-.29-6.29-.57-9.44a33.25,33.25,0,0,0-1.15-7.15c-2,1.15-3.71,2.29-4.57,4.29-1.72,3.72-4.86,6.29-6.58,10.29-1.14,2.29-3.72,3.72-6,4.87l-7.72,3.43c-4,1.43-8.3-.29-11.73-2.29-3.43-1.72-6.57-4-10-5.43a11.34,11.34,0,0,1-4.87-5.44,82.74,82.74,0,0,1-9.43-28.3c-3.15-20.31.57-39.75,8.29-58.62,2.29-4.86,4.58-10,8.58-14,2-2,3.43-4.86,7.15-2.29.57.57,2.29-.28,3.43-.57C1673.56,726,1677.28,726.24,1680.71,729.39Zm21.16,125.52c-4,2.29-7.15,6-12,7.15-.29,0-.58.86-.86,1.15a20.38,20.38,0,0,1-2.86,2.28c-6.29,2.86-10.58,8.29-15.44,12.58-4.29,4-6.58,9.15-9.72,14-2.86,5.15-2.58,9.44.28,14.3,2.29,4,11.44,7.44,16,5.72A6.07,6.07,0,0,0,1679,911c1.72-2.29,3.72-4.29,5.15-6.87,3.14-5.14,7.15-9.72,11.15-14.29a37.51,37.51,0,0,0,8.86-14.87c2-6.86.57-13.44,1.43-20.88C1703.87,854.34,1702.72,854.34,1701.87,854.91Zm-26.31-111.8c-1.14,4.58-2.86,9.15-2,14a102,102,0,0,1,.57,20.88c-.29,4.57-1.14,8.86-.57,13.44a16.86,16.86,0,0,1-2.86,11.15,10.52,10.52,0,0,0-2.57,7.15c-.29,4.28,0,8.86,3.14,12.58,0-2.29-.29-4.58-.29-6.87a15.58,15.58,0,0,1,.58-5.14c.57-1.15,1.14-2,2.28-2,1.43.28,1.43,1.43,1.43,2.57,0,3.43,0,6.58,2,9.72,3.14,5.15,4.28,5.72,9.14,2.29a58.37,58.37,0,0,0,13.73-11.44,6.25,6.25,0,0,0,2-5.72l-.86-26.3c0-1.43,0-3.44-1.14-4-2.86-1.43-3.14-4-4-6.57-2.86-7.15-8-13.44-10-21.16a9,9,0,0,0-5.72-6.29C1677.85,740.25,1676.42,740.25,1675.56,743.11Z"/>
    <path class="cls-1"
          d="M1809.09,723.38c1.14,0-7.72,5.15-2.29,5.15,2,0-1.43,2.57-5.43,4.29a9,9,0,0,1-2.86,1.43c-3.15.86-6.58,1.43-8.29,4-2.29,3.43-8,4.29-6.58,9.72a30,30,0,0,1,.28,5.15c.58,3.15,8.87,11.15,11.73,13.15a74.82,74.82,0,0,1,16,17.73c4,6.86,7.43,24,6,31.74-1.42,5.15-5.43,10.87-8.57,16.58-4.29,8.3-14.87,10.58-20.59,13.16a23.21,23.21,0,0,1-3.43,1.14c-2.86,1.14-10.3.86-14.87-.57-3.15-.86-10.87-2.57-8.58-3.15,1.43-.28,2.86,1.15-5.43-3.43-7.72-4.57-5.15-4.29-7.44-7.72-2.57-4.29,1.43-1.71,1.15-2.57-.29-1.43-4.58-4.58-2.29-4,1.14.28.86-.29,1.72-.29,2.28.29,6.29,4.29,6,2.29-.28-2.58-5.43-5.72-7.72-8.3-1.14-4,3.72,1.15,6.58,2.29,2.57,1.15,5.43,4,10.86,4.86,3.43,2,9.15,2,12,1.15,3.15-2.86,6-5.72,6.58-9.44.86-6.86-.57-17.44-5.43-24.88-4.58-7.14-12-14-18-20-6.29-7.15-7.72-17.73-4.86-26.31,2-6.57,4.86-12.29,12.58-14a5.42,5.42,0,0,0,3.15-2c4.57-3.43,9.43-3.43,14.58-4.29,4-.86,8.29-1.71,12-3.43C1801.08,721.09,1805.08,723.38,1809.09,723.38Zm-33.46,57.19,5.44,8.29c1.42,1.43,3.14,3.72,4.57,3.72,0-1.14.57-2.57,0-3.72a44.44,44.44,0,0,1-3.15-3.72l-7.14-9.15-5.15-4.57C1768.2,771.13,1774.49,778.57,1775.63,780.57Z"/>
    <text/>
</svg>