<svg id="Layer_1" data-name="Layer 1" xmlns="http://www.w3.org/2000/svg" viewBox="0 0 950.42 914.77"><title>logo</title><path d="M869,519.4q-3.46,107.42-52.32,172.21T700.62,756.4q-54.75,0-96-63.41T563.41,497.91q0-29.1,1.39-55.43t3.46-49.9l24.26-228H432.43Q390.85,597,364.17,679.13t-90.43,82.12q-27,0-51.29-21.48T198.2,683q0-31.87,50.24-89.06T304.23,489.6l41.58-325H278.59q-27.73,0-54.4,13.52T185,209.63L155.23,254H131q33.95-105.33,83.5-158.35t114-53H857.93v122H679.14q-8.31,83.16-12.82,166.32t-4.51,167q0,56.83,26.34,92.17T754,625.43q24.25,0,50.94-19.75t30.15-51.63q2.07-15.24,3.11-23.91c.7-5.77,1-9.36,1-10.74Z" transform="translate(-24.79 -42.61)"/><path d="M89.48,923.32a59.71,59.71,0,0,1-11.64,3.36,70.27,70.27,0,0,1-12.58,1.1,52,52,0,0,1-17-2.58,33.7,33.7,0,0,1-12.73-7.66,33.3,33.3,0,0,1-8-12.58,49.83,49.83,0,0,1-2.77-17.34,47.25,47.25,0,0,1,3-17.27,36.68,36.68,0,0,1,21.64-21.64,47.48,47.48,0,0,1,17.15-3,86,86,0,0,1,13,.83,71.19,71.19,0,0,1,9.5,2.07v18.51a48.43,48.43,0,0,0-10.51-3.75,47.46,47.46,0,0,0-10.74-1.33,24.11,24.11,0,0,0-9.54,1.8,20,20,0,0,0-7.1,5,21.77,21.77,0,0,0-4.42,7.77,31.79,31.79,0,0,0-1.52,10,29.77,29.77,0,0,0,1.64,10.24,21.62,21.62,0,0,0,4.65,7.69,20,20,0,0,0,7.22,4.85,25.18,25.18,0,0,0,9.38,1.68,41.07,41.07,0,0,0,5.27-.36,51.38,51.38,0,0,0,5.55-1q2.77-.66,5.47-1.53a53.62,53.62,0,0,0,5-1.87Z" transform="translate(-24.79 -42.61)"/><path d="M226.82,861.84H204.4V847h41.95v64.54h22.89v14.84H201.66V911.53h25.16Zm21.09-36.56a12.64,12.64,0,0,1-.93,4.84,12.12,12.12,0,0,1-2.62,4,12.53,12.53,0,0,1-4,2.65,12.31,12.31,0,0,1-4.92,1,12.61,12.61,0,0,1-5-1,12.33,12.33,0,0,1-4-2.65,12,12,0,0,1-2.62-4,13,13,0,0,1,0-9.69,12.3,12.3,0,0,1,2.62-4,12,12,0,0,1,4-2.7,12.61,12.61,0,0,1,5-1,12.31,12.31,0,0,1,4.92,1,12.18,12.18,0,0,1,4,2.7,12.47,12.47,0,0,1,2.62,4A12.66,12.66,0,0,1,247.91,825.28Z" transform="translate(-24.79 -42.61)"/><path d="M448.54,885.28a52.2,52.2,0,0,1-3.09,18.9,35.91,35.91,0,0,1-8.59,13.24,34.5,34.5,0,0,1-13,7.82,50.69,50.69,0,0,1-16.33,2.54,45.31,45.31,0,0,1-5.93-.39,46.34,46.34,0,0,1-5.39-1v31H377.13V847h16.49l.47,11.72a53.09,53.09,0,0,1,5-5.54,29.25,29.25,0,0,1,5.66-4.26,27.29,27.29,0,0,1,6.56-2.7,30.89,30.89,0,0,1,7.89-.93,26.86,26.86,0,0,1,12.5,2.81,25.34,25.34,0,0,1,9.18,8,38.26,38.26,0,0,1,5.67,12.57A65.17,65.17,0,0,1,448.54,885.28Zm-20,.78a56.52,56.52,0,0,0-.94-11.17,24.35,24.35,0,0,0-2.69-7.58,11.34,11.34,0,0,0-4.3-4.34,12.09,12.09,0,0,0-5.82-1.37,13.86,13.86,0,0,0-9.26,3.91,67.86,67.86,0,0,0-9.33,10.63v34.68a28.58,28.58,0,0,0,5.58,1.41,42,42,0,0,0,6.76.55,18,18,0,0,0,8.24-1.88,18.3,18.3,0,0,0,6.33-5.31,24.85,24.85,0,0,0,4-8.4A40.72,40.72,0,0,0,428.54,886.06Z" transform="translate(-24.79 -42.61)"/><path d="M600.41,926.37V874.65q0-13-9.68-13a13.86,13.86,0,0,0-9.26,3.91,67.86,67.86,0,0,0-9.34,10.63v50.23H553.07V816h19.06v27.19l-.93,14.37a54.69,54.69,0,0,1,4.92-5.19,26.14,26.14,0,0,1,5.39-3.87,25.76,25.76,0,0,1,6.25-2.38,31.11,31.11,0,0,1,7.42-.82,26.17,26.17,0,0,1,10.62,2,20.53,20.53,0,0,1,7.58,5.62,24.16,24.16,0,0,1,4.57,8.75,40,40,0,0,1,1.53,11.45v53.28Z" transform="translate(-24.79 -42.61)"/><path d="M798.15,880.59c0,1.3,0,3-.12,5.08s-.19,4-.35,5.86H745.49a24.67,24.67,0,0,0,1.6,9.21,18,18,0,0,0,4.54,6.68,19.57,19.57,0,0,0,7,4.11,28.07,28.07,0,0,0,9.1,1.4,91.94,91.94,0,0,0,12.38-.9,96.13,96.13,0,0,0,13.71-2.93v15.16q-3,.86-6.64,1.56c-2.4.47-4.84.89-7.34,1.25s-5,.64-7.58.82-5,.28-7.42.28a47.85,47.85,0,0,1-16.25-2.58A32.14,32.14,0,0,1,736.43,918a33.37,33.37,0,0,1-7.66-12.46,51,51,0,0,1-2.65-17.19,55.22,55.22,0,0,1,2.65-17.61,40.39,40.39,0,0,1,7.5-13.6A33,33,0,0,1,748,848.36a37.56,37.56,0,0,1,15.43-3.08,39.7,39.7,0,0,1,14.92,2.61,29.91,29.91,0,0,1,10.86,7.31,31.17,31.17,0,0,1,6.64,11.17A42.84,42.84,0,0,1,798.15,880.59Zm-19.38-2.74a23.11,23.11,0,0,0-1.17-8.16,16.11,16.11,0,0,0-3.4-5.74,13.47,13.47,0,0,0-5-3.36,16.93,16.93,0,0,0-6.13-1.1,15.67,15.67,0,0,0-11.8,4.81q-4.6,4.8-5.47,13.55Z" transform="translate(-24.79 -42.61)"/><path d="M956,877.85a35.4,35.4,0,0,0-.43-7.57,14.59,14.59,0,0,0-1.88-5.16,8,8,0,0,0-3.16-3,9.55,9.55,0,0,0-4.3-.94q-4.21,0-8.71,3.48t-9.88,11.45v50.23H908.15V847h17.26l.71,11.57a31.24,31.24,0,0,1,4.41-5.47,27.62,27.62,0,0,1,5.47-4.18,26,26,0,0,1,6.68-2.7,32.76,32.76,0,0,1,8.05-.93,26,26,0,0,1,10.66,2.07,20.13,20.13,0,0,1,7.81,6.13,26.9,26.9,0,0,1,4.69,10.19,52.43,52.43,0,0,1,1.29,14.18Z" transform="translate(-24.79 -42.61)"/></svg>