<svg id="Layer_1" data-name="Layer 1" xmlns="http://www.w3.org/2000/svg" viewBox="0 0 2400 1600"><defs><style>.cls-1{fill:#1e1e1e;}.cls-2{fill:lime;}.cls-3{fill:#0a0;}.cls-4{fill:#006d00;}.cls-5{fill:aqua;}.cls-6{fill:#00aaa5;}.cls-7{fill:#006d67;}.cls-8{fill:blue;}.cls-9{fill:#00009b;}.cls-10{fill:#00003f;}.cls-11{fill:#f0f;}.cls-12{fill:#a500a5;}.cls-13{fill:#6d006d;}.cls-14{fill:orange;}.cls-15{fill:#a86700;}.cls-16{fill:#6b3a00;}.cls-17{fill:#ff0;}.cls-18{fill:#9e9a00;}.cls-19{fill:#605d00;}.cls-20{fill:red;}.cls-21{fill:#a80000;}.cls-22{fill:#6d0000;}</style></defs><title>Artboard 1</title><rect class="cls-1" width="2400" height="1600"/><polygon class="cls-2" points="448.88 478.05 448.88 543.18 459.42 543.18 514.01 543.18 514.01 488.58 514.01 478.05 448.88 478.05"/><polygon class="cls-3" points="514.01 543.18 459.42 543.18 448.88 543.18 459.42 553.71 524.54 553.71 514.01 543.18"/><polygon class="cls-4" points="514.01 478.05 514.01 488.58 514.01 543.18 524.54 553.71 524.54 488.58 514.01 478.05"/><polygon class="cls-5" points="158.96 61.09 158.96 126.22 169.5 126.22 224.09 126.22 224.09 71.62 224.09 61.09 158.96 61.09"/><polygon class="cls-6" points="224.09 126.22 169.5 126.22 158.96 126.22 169.5 136.75 234.62 136.75 224.09 126.22"/><polygon class="cls-7" points="224.09 61.09 224.09 71.62 224.09 126.22 234.62 136.75 234.62 71.62 224.09 61.09"/><polygon class="cls-5" points="158.96 131.48 158.96 196.61 169.5 196.61 224.09 196.61 224.09 142.01 224.09 131.48 158.96 131.48"/><polygon class="cls-6" points="224.09 196.61 169.5 196.61 158.96 196.61 169.5 207.14 234.62 207.14 224.09 196.61"/><polygon class="cls-7" points="224.09 131.48 224.09 142.01 224.09 196.61 234.62 207.14 234.62 142.01 224.09 131.48"/><polygon class="cls-5" points="158.96 201.87 158.96 267 169.5 267 224.09 267 224.09 212.41 224.09 201.87 158.96 201.87"/><polygon class="cls-6" points="224.09 267 169.5 267 158.96 267 169.5 277.53 234.62 277.53 224.09 267"/><polygon class="cls-7" points="224.09 201.87 224.09 212.41 224.09 267 234.62 277.53 234.62 212.41 224.09 201.87"/><polygon class="cls-5" points="158.96 272.27 158.96 337.39 169.5 337.39 224.09 337.39 224.09 282.8 224.09 272.27 158.96 272.27"/><polygon class="cls-6" points="224.09 337.39 169.5 337.39 158.96 337.39 169.5 347.93 234.62 347.93 224.09 337.39"/><polygon class="cls-7" points="224.09 272.27 224.09 282.8 224.09 337.39 234.62 347.93 234.62 282.8 224.09 272.27"/><polygon class="cls-8" points="337.43 226.41 337.43 291.54 347.96 291.54 402.55 291.54 402.55 236.94 402.55 226.41 337.43 226.41"/><polygon class="cls-9" points="402.55 291.54 347.96 291.54 337.43 291.54 347.96 302.07 413.08 302.07 402.55 291.54"/><polygon class="cls-10" points="402.55 226.41 402.55 236.94 402.55 291.54 413.08 302.07 413.08 236.94 402.55 226.41"/><polygon class="cls-8" points="337.43 296.8 337.43 361.93 347.96 361.93 402.55 361.93 402.55 307.33 402.55 296.8 337.43 296.8"/><polygon class="cls-9" points="402.55 361.93 347.96 361.93 337.43 361.93 347.96 372.46 413.08 372.46 402.55 361.93"/><polygon class="cls-10" points="402.55 296.8 402.55 307.33 402.55 361.93 413.08 372.46 413.08 307.33 402.55 296.8"/><polygon class="cls-8" points="337.43 367.2 337.43 432.32 347.96 432.32 402.55 432.32 402.55 377.73 402.55 367.2 337.43 367.2"/><polygon class="cls-9" points="402.55 432.32 347.96 432.32 337.43 432.32 347.96 442.85 413.08 442.85 402.55 432.32"/><polygon class="cls-10" points="402.55 367.2 402.55 377.73 402.55 432.32 413.08 442.85 413.08 377.73 402.55 367.2"/><polygon class="cls-8" points="407.82 226.41 407.82 291.54 418.35 291.54 472.94 291.54 472.94 236.94 472.94 226.41 407.82 226.41"/><polygon class="cls-9" points="472.94 291.54 418.35 291.54 407.82 291.54 418.35 302.07 483.48 302.07 472.94 291.54"/><polygon class="cls-10" points="472.94 226.41 472.94 236.94 472.94 291.54 483.48 302.07 483.48 236.94 472.94 226.41"/><polygon class="cls-11" points="704.79 264.24 704.79 329.37 715.32 329.37 769.92 329.37 769.92 274.77 769.92 264.24 704.79 264.24"/><polygon class="cls-12" points="769.92 329.37 715.32 329.37 704.79 329.37 715.32 339.9 780.45 339.9 769.92 329.37"/><polygon class="cls-13" points="769.92 264.24 769.92 274.77 769.92 329.37 780.45 339.9 780.45 274.77 769.92 264.24"/><polygon class="cls-11" points="704.79 334.63 704.79 399.76 715.32 399.76 769.92 399.76 769.92 345.17 769.92 334.63 704.79 334.63"/><polygon class="cls-12" points="769.92 399.76 715.32 399.76 704.79 399.76 715.32 410.29 780.45 410.29 769.92 399.76"/><polygon class="cls-13" points="769.92 334.63 769.92 345.17 769.92 399.76 780.45 410.29 780.45 345.17 769.92 334.63"/><polygon class="cls-11" points="704.79 405.02 704.79 470.15 715.32 470.15 769.92 470.15 769.92 415.56 769.92 405.02 704.79 405.02"/><polygon class="cls-12" points="769.92 470.15 715.32 470.15 704.79 470.15 715.32 480.68 780.45 480.68 769.92 470.15"/><polygon class="cls-13" points="769.92 405.02 769.92 415.56 769.92 470.15 780.45 480.68 780.45 415.56 769.92 405.02"/><polygon class="cls-11" points="775.18 334.63 775.18 399.76 785.72 399.76 840.31 399.76 840.31 345.17 840.31 334.63 775.18 334.63"/><polygon class="cls-12" points="840.31 399.76 785.72 399.76 775.18 399.76 785.72 410.29 850.84 410.29 840.31 399.76"/><polygon class="cls-13" points="840.31 334.63 840.31 345.17 840.31 399.76 850.84 410.29 850.84 345.17 840.31 334.63"/><polygon class="cls-14" points="524.51 28.53 524.51 93.65 535.05 93.65 589.64 93.65 589.64 39.06 589.64 28.53 524.51 28.53"/><polygon class="cls-15" points="589.64 93.65 535.05 93.65 524.51 93.65 535.05 104.18 600.17 104.18 589.64 93.65"/><polygon class="cls-16" points="589.64 28.53 589.64 39.06 589.64 93.65 600.17 104.18 600.17 39.06 589.64 28.53"/><polygon class="cls-14" points="524.51 98.92 524.51 164.04 535.05 164.04 589.64 164.04 589.64 109.45 589.64 98.92 524.51 98.92"/><polygon class="cls-15" points="589.64 164.04 535.05 164.04 524.51 164.04 535.05 174.58 600.17 174.58 589.64 164.04"/><polygon class="cls-16" points="589.64 98.92 589.64 109.45 589.64 164.04 600.17 174.58 600.17 109.45 589.64 98.92"/><polygon class="cls-14" points="524.51 169.31 524.51 234.44 535.05 234.44 589.64 234.44 589.64 179.84 589.64 169.31 524.51 169.31"/><polygon class="cls-15" points="589.64 234.44 535.05 234.44 524.51 234.44 535.05 244.97 600.17 244.97 589.64 234.44"/><polygon class="cls-16" points="589.64 169.31 589.64 179.84 589.64 234.44 600.17 244.97 600.17 179.84 589.64 169.31"/><polygon class="cls-14" points="594.91 169.31 594.91 234.44 605.44 234.44 660.03 234.44 660.03 179.84 660.03 169.31 594.91 169.31"/><polygon class="cls-15" points="660.03 234.44 605.44 234.44 594.91 234.44 605.44 244.97 670.57 244.97 660.03 234.44"/><polygon class="cls-16" points="660.03 169.31 660.03 179.84 660.03 234.44 670.57 244.97 670.57 179.84 660.03 169.31"/><polygon class="cls-17" points="63.73 402.39 63.73 467.52 74.27 467.52 128.86 467.52 128.86 412.92 128.86 402.39 63.73 402.39"/><polygon class="cls-18" points="128.86 467.52 74.27 467.52 63.73 467.52 74.27 478.05 139.39 478.05 128.86 467.52"/><polygon class="cls-19" points="128.86 402.39 128.86 412.92 128.86 467.52 139.39 478.05 139.39 412.92 128.86 402.39"/><polygon class="cls-17" points="63.73 472.78 63.73 537.91 74.27 537.91 128.86 537.91 128.86 483.32 128.86 472.78 63.73 472.78"/><polygon class="cls-18" points="128.86 537.91 74.27 537.91 63.73 537.91 74.27 548.44 139.39 548.44 128.86 537.91"/><polygon class="cls-19" points="128.86 472.78 128.86 483.32 128.86 537.91 139.39 548.44 139.39 483.32 128.86 472.78"/><polygon class="cls-17" points="134.13 402.39 134.13 467.52 144.66 467.52 199.25 467.52 199.25 412.92 199.25 402.39 134.13 402.39"/><polygon class="cls-18" points="199.25 467.52 144.66 467.52 134.13 467.52 144.66 478.05 209.78 478.05 199.25 467.52"/><polygon class="cls-19" points="199.25 402.39 199.25 412.92 199.25 467.52 209.78 478.05 209.78 412.92 199.25 402.39"/><polygon class="cls-17" points="134.13 472.78 134.13 537.91 144.66 537.91 199.25 537.91 199.25 483.32 199.25 472.78 134.13 472.78"/><polygon class="cls-18" points="199.25 537.91 144.66 537.91 134.13 537.91 144.66 548.44 209.78 548.44 199.25 537.91"/><polygon class="cls-19" points="199.25 472.78 199.25 483.32 199.25 537.91 209.78 548.44 209.78 483.32 199.25 472.78"/><polygon class="cls-2" points="519.28 407.66 519.28 472.78 529.81 472.78 584.4 472.78 584.4 418.19 584.4 407.66 519.28 407.66"/><polygon class="cls-3" points="584.4 472.78 529.81 472.78 519.28 472.78 529.81 483.32 594.93 483.32 584.4 472.78"/><polygon class="cls-4" points="584.4 407.66 584.4 418.19 584.4 472.78 594.93 483.32 594.93 418.19 584.4 407.66"/><polygon class="cls-2" points="519.28 478.05 519.28 543.18 529.81 543.18 584.4 543.18 584.4 488.58 584.4 478.05 519.28 478.05"/><polygon class="cls-3" points="584.4 543.18 529.81 543.18 519.28 543.18 529.81 553.71 594.93 553.71 584.4 543.18"/><polygon class="cls-4" points="584.4 478.05 584.4 488.58 584.4 543.18 594.93 553.71 594.93 488.58 584.4 478.05"/><polygon class="cls-2" points="589.67 407.66 589.67 472.78 600.2 472.78 654.79 472.78 654.79 418.19 654.79 407.66 589.67 407.66"/><polygon class="cls-3" points="654.79 472.78 600.2 472.78 589.67 472.78 600.2 483.32 665.33 483.32 654.79 472.78"/><polygon class="cls-4" points="654.79 407.66 654.79 418.19 654.79 472.78 665.33 483.32 665.33 418.19 654.79 407.66"/><polygon class="cls-20" points="790.13 134.12 790.13 199.24 800.66 199.24 855.26 199.24 855.26 144.65 855.26 134.12 790.13 134.12"/><polygon class="cls-21" points="855.26 199.24 800.66 199.24 790.13 199.24 800.66 209.77 865.79 209.77 855.26 199.24"/><polygon class="cls-22" points="855.26 134.12 855.26 144.65 855.26 199.24 865.79 209.77 865.79 144.65 855.26 134.12"/><polygon class="cls-20" points="860.52 134.12 860.52 199.24 871.05 199.24 925.65 199.24 925.65 144.65 925.65 134.12 860.52 134.12"/><polygon class="cls-21" points="925.65 199.24 871.05 199.24 860.52 199.24 871.05 209.77 936.18 209.77 925.65 199.24"/><polygon class="cls-22" points="925.65 134.12 925.65 144.65 925.65 199.24 936.18 209.77 936.18 144.65 925.65 134.12"/><polygon class="cls-20" points="860.52 204.51 860.52 269.63 871.05 269.63 925.65 269.63 925.65 215.04 925.65 204.51 860.52 204.51"/><polygon class="cls-21" points="925.65 269.63 871.05 269.63 860.52 269.63 871.05 280.17 936.18 280.17 925.65 269.63"/><polygon class="cls-22" points="925.65 204.51 925.65 215.04 925.65 269.63 936.18 280.17 936.18 215.04 925.65 204.51"/><polygon class="cls-20" points="930.91 204.51 930.91 269.63 941.45 269.63 996.04 269.63 996.04 215.04 996.04 204.51 930.91 204.51"/><polygon class="cls-21" points="996.04 269.63 941.45 269.63 930.91 269.63 941.45 280.17 1006.57 280.17 996.04 269.63"/><polygon class="cls-22" points="996.04 204.51 996.04 215.04 996.04 269.63 1006.57 280.17 1006.57 215.04 996.04 204.51"/><polygon class="cls-5" points="261.77 821.48 261.77 886.61 272.3 886.61 326.89 886.61 326.89 832.01 326.89 821.48 261.77 821.48"/><polygon class="cls-6" points="326.89 886.61 272.3 886.61 261.77 886.61 272.3 897.14 337.43 897.14 326.89 886.61"/><polygon class="cls-7" points="326.89 821.48 326.89 832.01 326.89 886.61 337.43 897.14 337.43 832.01 326.89 821.48"/><polygon class="cls-5" points="261.77 891.87 261.77 957 272.3 957 326.89 957 326.89 902.4 326.89 891.87 261.77 891.87"/><polygon class="cls-6" points="326.89 957 272.3 957 261.77 957 272.3 967.53 337.43 967.53 326.89 957"/><polygon class="cls-7" points="326.89 891.87 326.89 902.4 326.89 957 337.43 967.53 337.43 902.4 326.89 891.87"/><polygon class="cls-5" points="261.77 962.26 261.77 1027.39 272.3 1027.39 326.89 1027.39 326.89 972.8 326.89 962.26 261.77 962.26"/><polygon class="cls-6" points="326.89 1027.39 272.3 1027.39 261.77 1027.39 272.3 1037.92 337.43 1037.92 326.89 1027.39"/><polygon class="cls-7" points="326.89 962.26 326.89 972.8 326.89 1027.39 337.43 1037.92 337.43 972.8 326.89 962.26"/><polygon class="cls-5" points="261.77 1032.66 261.77 1097.78 272.3 1097.78 326.89 1097.78 326.89 1043.19 326.89 1032.66 261.77 1032.66"/><polygon class="cls-6" points="326.89 1097.78 272.3 1097.78 261.77 1097.78 272.3 1108.32 337.43 1108.32 326.89 1097.78"/><polygon class="cls-7" points="326.89 1032.66 326.89 1043.19 326.89 1097.78 337.43 1108.32 337.43 1043.19 326.89 1032.66"/><polygon class="cls-5" points="2004.03 743.19 2004.03 808.32 2014.56 808.32 2069.16 808.32 2069.16 753.72 2069.16 743.19 2004.03 743.19"/><polygon class="cls-6" points="2069.16 808.32 2014.56 808.32 2004.03 808.32 2014.56 818.85 2079.69 818.85 2069.16 808.32"/><polygon class="cls-7" points="2069.16 743.19 2069.16 753.72 2069.16 808.32 2079.69 818.85 2079.69 753.72 2069.16 743.19"/><polygon class="cls-5" points="2004.03 813.58 2004.03 878.71 2014.56 878.71 2069.16 878.71 2069.16 824.11 2069.16 813.58 2004.03 813.58"/><polygon class="cls-6" points="2069.16 878.71 2014.56 878.71 2004.03 878.71 2014.56 889.24 2079.69 889.24 2069.16 878.71"/><polygon class="cls-7" points="2069.16 813.58 2069.16 824.11 2069.16 878.71 2079.69 889.24 2079.69 824.11 2069.16 813.58"/><polygon class="cls-5" points="2004.03 883.97 2004.03 949.1 2014.56 949.1 2069.16 949.1 2069.16 894.51 2069.16 883.97 2004.03 883.97"/><polygon class="cls-6" points="2069.16 949.1 2014.56 949.1 2004.03 949.1 2014.56 959.63 2079.69 959.63 2069.16 949.1"/><polygon class="cls-7" points="2069.16 883.97 2069.16 894.51 2069.16 949.1 2079.69 959.63 2079.69 894.51 2069.16 883.97"/><polygon class="cls-5" points="2004.03 954.37 2004.03 1019.49 2014.56 1019.49 2069.16 1019.49 2069.16 964.9 2069.16 954.37 2004.03 954.37"/><polygon class="cls-6" points="2069.16 1019.49 2014.56 1019.49 2004.03 1019.49 2014.56 1030.03 2079.69 1030.03 2069.16 1019.49"/><polygon class="cls-7" points="2069.16 954.37 2069.16 964.9 2069.16 1019.49 2079.69 1030.03 2079.69 964.9 2069.16 954.37"/><polygon class="cls-5" points="784.86 1032.66 784.86 1097.78 795.4 1097.78 849.99 1097.78 849.99 1043.19 849.99 1032.66 784.86 1032.66"/><polygon class="cls-6" points="849.99 1097.78 795.4 1097.78 784.86 1097.78 795.4 1108.32 860.52 1108.32 849.99 1097.78"/><polygon class="cls-7" points="849.99 1032.66 849.99 1043.19 849.99 1097.78 860.52 1108.32 860.52 1043.19 849.99 1032.66"/><polygon class="cls-5" points="784.86 1103.05 784.86 1168.18 795.4 1168.18 849.99 1168.18 849.99 1113.58 849.99 1103.05 784.86 1103.05"/><polygon class="cls-6" points="849.99 1168.18 795.4 1168.18 784.86 1168.18 795.4 1178.71 860.52 1178.71 849.99 1168.18"/><polygon class="cls-7" points="849.99 1103.05 849.99 1113.58 849.99 1168.18 860.52 1178.71 860.52 1113.58 849.99 1103.05"/><polygon class="cls-5" points="784.86 1173.44 784.86 1238.57 795.4 1238.57 849.99 1238.57 849.99 1183.97 849.99 1173.44 784.86 1173.44"/><polygon class="cls-6" points="849.99 1238.57 795.4 1238.57 784.86 1238.57 795.4 1249.1 860.52 1249.1 849.99 1238.57"/><polygon class="cls-7" points="849.99 1173.44 849.99 1183.97 849.99 1238.57 860.52 1249.1 860.52 1183.97 849.99 1173.44"/><polygon class="cls-5" points="784.86 1243.84 784.86 1308.96 795.4 1308.96 849.99 1308.96 849.99 1254.37 849.99 1243.84 784.86 1243.84"/><polygon class="cls-6" points="849.99 1308.96 795.4 1308.96 784.86 1308.96 795.4 1319.49 860.52 1319.49 849.99 1308.96"/><polygon class="cls-7" points="849.99 1243.84 849.99 1254.37 849.99 1308.96 860.52 1319.49 860.52 1254.37 849.99 1243.84"/><polygon class="cls-5" points="1734.98 299.44 1734.98 364.56 1745.51 364.56 1800.11 364.56 1800.11 309.97 1800.11 299.44 1734.98 299.44"/><polygon class="cls-6" points="1800.11 364.56 1745.51 364.56 1734.98 364.56 1745.51 375.1 1810.64 375.1 1800.11 364.56"/><polygon class="cls-7" points="1800.11 299.44 1800.11 309.97 1800.11 364.56 1810.64 375.1 1810.64 309.97 1800.11 299.44"/><polygon class="cls-5" points="1734.98 369.83 1734.98 434.95 1745.51 434.95 1800.11 434.95 1800.11 380.36 1800.11 369.83 1734.98 369.83"/><polygon class="cls-6" points="1800.11 434.95 1745.51 434.95 1734.98 434.95 1745.51 445.49 1810.64 445.49 1800.11 434.95"/><polygon class="cls-7" points="1800.11 369.83 1800.11 380.36 1800.11 434.95 1810.64 445.49 1810.64 380.36 1800.11 369.83"/><polygon class="cls-5" points="1734.98 440.22 1734.98 505.35 1745.51 505.35 1800.11 505.35 1800.11 450.75 1800.11 440.22 1734.98 440.22"/><polygon class="cls-6" points="1800.11 505.35 1745.51 505.35 1734.98 505.35 1745.51 515.88 1810.64 515.88 1800.11 505.35"/><polygon class="cls-7" points="1800.11 440.22 1800.11 450.75 1800.11 505.35 1810.64 515.88 1810.64 450.75 1800.11 440.22"/><polygon class="cls-5" points="1734.98 510.61 1734.98 575.74 1745.51 575.74 1800.11 575.74 1800.11 521.15 1800.11 510.61 1734.98 510.61"/><polygon class="cls-6" points="1800.11 575.74 1745.51 575.74 1734.98 575.74 1745.51 586.27 1810.64 586.27 1800.11 575.74"/><polygon class="cls-7" points="1800.11 510.61 1800.11 521.15 1800.11 575.74 1810.64 586.27 1810.64 521.15 1800.11 510.61"/><polygon class="cls-5" points="134.13 1276.4 134.13 1341.53 144.66 1341.53 199.25 1341.53 199.25 1286.93 199.25 1276.4 134.13 1276.4"/><polygon class="cls-6" points="199.25 1341.53 144.66 1341.53 134.13 1341.53 144.66 1352.06 209.78 1352.06 199.25 1341.53"/><polygon class="cls-7" points="199.25 1276.4 199.25 1286.93 199.25 1341.53 209.78 1352.06 209.78 1286.93 199.25 1276.4"/><polygon class="cls-5" points="134.13 1346.79 134.13 1411.92 144.66 1411.92 199.25 1411.92 199.25 1357.32 199.25 1346.79 134.13 1346.79"/><polygon class="cls-6" points="199.25 1411.92 144.66 1411.92 134.13 1411.92 144.66 1422.45 209.78 1422.45 199.25 1411.92"/><polygon class="cls-7" points="199.25 1346.79 199.25 1357.32 199.25 1411.92 209.78 1422.45 209.78 1357.32 199.25 1346.79"/><polygon class="cls-5" points="134.13 1417.18 134.13 1482.31 144.66 1482.31 199.25 1482.31 199.25 1427.71 199.25 1417.18 134.13 1417.18"/><polygon class="cls-6" points="199.25 1482.31 144.66 1482.31 134.13 1482.31 144.66 1492.84 209.78 1492.84 199.25 1482.31"/><polygon class="cls-7" points="199.25 1417.18 199.25 1427.71 199.25 1482.31 209.78 1492.84 209.78 1427.71 199.25 1417.18"/><polygon class="cls-5" points="134.13 1487.58 134.13 1552.7 144.66 1552.7 199.25 1552.7 199.25 1498.11 199.25 1487.58 134.13 1487.58"/><polygon class="cls-6" points="199.25 1552.7 144.66 1552.7 134.13 1552.7 144.66 1563.23 209.78 1563.23 199.25 1552.7"/><polygon class="cls-7" points="199.25 1487.58 199.25 1498.11 199.25 1552.7 209.78 1563.23 209.78 1498.11 199.25 1487.58"/><polygon class="cls-5" points="860.52 532.01 860.52 597.14 871.05 597.14 925.65 597.14 925.65 542.54 925.65 532.01 860.52 532.01"/><polygon class="cls-6" points="925.65 597.14 871.05 597.14 860.52 597.14 871.05 607.67 936.18 607.67 925.65 597.14"/><polygon class="cls-7" points="925.65 532.01 925.65 542.54 925.65 597.14 936.18 607.67 936.18 542.54 925.65 532.01"/><polygon class="cls-5" points="860.52 602.4 860.52 667.53 871.05 667.53 925.65 667.53 925.65 612.94 925.65 602.4 860.52 602.4"/><polygon class="cls-6" points="925.65 667.53 871.05 667.53 860.52 667.53 871.05 678.06 936.18 678.06 925.65 667.53"/><polygon class="cls-7" points="925.65 602.4 925.65 612.94 925.65 667.53 936.18 678.06 936.18 612.94 925.65 602.4"/><polygon class="cls-5" points="860.52 672.8 860.52 737.92 871.05 737.92 925.65 737.92 925.65 683.33 925.65 672.8 860.52 672.8"/><polygon class="cls-6" points="925.65 737.92 871.05 737.92 860.52 737.92 871.05 748.46 936.18 748.46 925.65 737.92"/><polygon class="cls-7" points="925.65 672.8 925.65 683.33 925.65 737.92 936.18 748.46 936.18 683.33 925.65 672.8"/><polygon class="cls-5" points="860.52 743.19 860.52 808.32 871.05 808.32 925.65 808.32 925.65 753.72 925.65 743.19 860.52 743.19"/><polygon class="cls-6" points="925.65 808.32 871.05 808.32 860.52 808.32 871.05 818.85 936.18 818.85 925.65 808.32"/><polygon class="cls-7" points="925.65 743.19 925.65 753.72 925.65 808.32 936.18 818.85 936.18 753.72 925.65 743.19"/><polygon class="cls-5" points="1326.83 637.6 1326.83 702.73 1337.37 702.73 1391.96 702.73 1391.96 648.13 1391.96 637.6 1326.83 637.6"/><polygon class="cls-6" points="1391.96 702.73 1337.37 702.73 1326.83 702.73 1337.37 713.26 1402.49 713.26 1391.96 702.73"/><polygon class="cls-7" points="1391.96 637.6 1391.96 648.13 1391.96 702.73 1402.49 713.26 1402.49 648.13 1391.96 637.6"/><polygon class="cls-5" points="1326.83 707.99 1326.83 773.12 1337.37 773.12 1391.96 773.12 1391.96 718.52 1391.96 707.99 1326.83 707.99"/><polygon class="cls-6" points="1391.96 773.12 1337.37 773.12 1326.83 773.12 1337.37 783.65 1402.49 783.65 1391.96 773.12"/><polygon class="cls-7" points="1391.96 707.99 1391.96 718.52 1391.96 773.12 1402.49 783.65 1402.49 718.52 1391.96 707.99"/><polygon class="cls-5" points="1326.83 778.38 1326.83 843.51 1337.37 843.51 1391.96 843.51 1391.96 788.92 1391.96 778.38 1326.83 778.38"/><polygon class="cls-6" points="1391.96 843.51 1337.37 843.51 1326.83 843.51 1337.37 854.04 1402.49 854.04 1391.96 843.51"/><polygon class="cls-7" points="1391.96 778.38 1391.96 788.92 1391.96 843.51 1402.49 854.04 1402.49 788.92 1391.96 778.38"/><polygon class="cls-5" points="1326.83 848.78 1326.83 913.9 1337.37 913.9 1391.96 913.9 1391.96 859.31 1391.96 848.78 1326.83 848.78"/><polygon class="cls-6" points="1391.96 913.9 1337.37 913.9 1326.83 913.9 1337.37 924.44 1402.49 924.44 1391.96 913.9"/><polygon class="cls-7" points="1391.96 848.78 1391.96 859.31 1391.96 913.9 1402.49 924.44 1402.49 859.31 1391.96 848.78"/><polygon class="cls-5" points="1845.94 1195.47 1845.94 1260.6 1856.48 1260.6 1911.07 1260.6 1911.07 1206.01 1911.07 1195.47 1845.94 1195.47"/><polygon class="cls-6" points="1911.07 1260.6 1856.48 1260.6 1845.94 1260.6 1856.48 1271.13 1921.6 1271.13 1911.07 1260.6"/><polygon class="cls-7" points="1911.07 1195.47 1911.07 1206.01 1911.07 1260.6 1921.6 1271.13 1921.6 1206.01 1911.07 1195.47"/><polygon class="cls-5" points="1845.94 1265.87 1845.94 1330.99 1856.48 1330.99 1911.07 1330.99 1911.07 1276.4 1911.07 1265.87 1845.94 1265.87"/><polygon class="cls-6" points="1911.07 1330.99 1856.48 1330.99 1845.94 1330.99 1856.48 1341.53 1921.6 1341.53 1911.07 1330.99"/><polygon class="cls-7" points="1911.07 1265.87 1911.07 1276.4 1911.07 1330.99 1921.6 1341.53 1921.6 1276.4 1911.07 1265.87"/><polygon class="cls-5" points="1845.94 1336.26 1845.94 1401.38 1856.48 1401.38 1911.07 1401.38 1911.07 1346.79 1911.07 1336.26 1845.94 1336.26"/><polygon class="cls-6" points="1911.07 1401.38 1856.48 1401.38 1845.94 1401.38 1856.48 1411.92 1921.6 1411.92 1911.07 1401.38"/><polygon class="cls-7" points="1911.07 1336.26 1911.07 1346.79 1911.07 1401.38 1921.6 1411.92 1921.6 1346.79 1911.07 1336.26"/><polygon class="cls-5" points="1845.94 1406.65 1845.94 1471.78 1856.48 1471.78 1911.07 1471.78 1911.07 1417.18 1911.07 1406.65 1845.94 1406.65"/><polygon class="cls-6" points="1911.07 1471.78 1856.48 1471.78 1845.94 1471.78 1856.48 1482.31 1921.6 1482.31 1911.07 1471.78"/><polygon class="cls-7" points="1911.07 1406.65 1911.07 1417.18 1911.07 1471.78 1921.6 1482.31 1921.6 1417.18 1911.07 1406.65"/><polygon class="cls-5" points="1212.94 58.46 1212.94 123.58 1223.47 123.58 1278.07 123.58 1278.07 68.99 1278.07 58.46 1212.94 58.46"/><polygon class="cls-6" points="1278.07 123.58 1223.47 123.58 1212.94 123.58 1223.47 134.12 1288.6 134.12 1278.07 123.58"/><polygon class="cls-7" points="1278.07 58.46 1278.07 68.99 1278.07 123.58 1288.6 134.12 1288.6 68.99 1278.07 58.46"/><polygon class="cls-5" points="1212.94 128.85 1212.94 193.97 1223.47 193.97 1278.07 193.97 1278.07 139.38 1278.07 128.85 1212.94 128.85"/><polygon class="cls-6" points="1278.07 193.97 1223.47 193.97 1212.94 193.97 1223.47 204.51 1288.6 204.51 1278.07 193.97"/><polygon class="cls-7" points="1278.07 128.85 1278.07 139.38 1278.07 193.97 1288.6 204.51 1288.6 139.38 1278.07 128.85"/><polygon class="cls-5" points="1212.94 199.24 1212.94 264.37 1223.47 264.37 1278.07 264.37 1278.07 209.77 1278.07 199.24 1212.94 199.24"/><polygon class="cls-6" points="1278.07 264.37 1223.47 264.37 1212.94 264.37 1223.47 274.9 1288.6 274.9 1278.07 264.37"/><polygon class="cls-7" points="1278.07 199.24 1278.07 209.77 1278.07 264.37 1288.6 274.9 1288.6 209.77 1278.07 199.24"/><polygon class="cls-5" points="1212.94 269.63 1212.94 334.76 1223.47 334.76 1278.07 334.76 1278.07 280.17 1278.07 269.63 1212.94 269.63"/><polygon class="cls-6" points="1278.07 334.76 1223.47 334.76 1212.94 334.76 1223.47 345.29 1288.6 345.29 1278.07 334.76"/><polygon class="cls-7" points="1278.07 269.63 1278.07 280.17 1278.07 334.76 1288.6 345.29 1288.6 280.17 1278.07 269.63"/><polygon class="cls-2" points="1207.61 1438.25 1207.61 1503.37 1218.14 1503.37 1272.73 1503.37 1272.73 1448.78 1272.73 1438.25 1207.61 1438.25"/><polygon class="cls-3" points="1272.73 1503.37 1218.14 1503.37 1207.61 1503.37 1218.14 1513.91 1283.27 1513.91 1272.73 1503.37"/><polygon class="cls-4" points="1272.73 1438.25 1272.73 1448.78 1272.73 1503.37 1283.27 1513.91 1283.27 1448.78 1272.73 1438.25"/><polygon class="cls-2" points="1278 1367.86 1278 1432.98 1288.53 1432.98 1343.13 1432.98 1343.13 1378.39 1343.13 1367.86 1278 1367.86"/><polygon class="cls-3" points="1343.13 1432.98 1288.53 1432.98 1278 1432.98 1288.53 1443.51 1353.66 1443.51 1343.13 1432.98"/><polygon class="cls-4" points="1343.13 1367.86 1343.13 1378.39 1343.13 1432.98 1353.66 1443.51 1353.66 1378.39 1343.13 1367.86"/><polygon class="cls-2" points="1278 1438.25 1278 1503.37 1288.53 1503.37 1343.13 1503.37 1343.13 1448.78 1343.13 1438.25 1278 1438.25"/><polygon class="cls-3" points="1343.13 1503.37 1288.53 1503.37 1278 1503.37 1288.53 1513.91 1353.66 1513.91 1343.13 1503.37"/><polygon class="cls-4" points="1343.13 1438.25 1343.13 1448.78 1343.13 1503.37 1353.66 1513.91 1353.66 1448.78 1343.13 1438.25"/><polygon class="cls-2" points="1348.39 1367.86 1348.39 1432.98 1358.92 1432.98 1413.52 1432.98 1413.52 1378.39 1413.52 1367.86 1348.39 1367.86"/><polygon class="cls-3" points="1413.52 1432.98 1358.92 1432.98 1348.39 1432.98 1358.92 1443.51 1424.05 1443.51 1413.52 1432.98"/><polygon class="cls-4" points="1413.52 1367.86 1413.52 1378.39 1413.52 1432.98 1424.05 1443.51 1424.05 1378.39 1413.52 1367.86"/><polygon class="cls-2" points="508.85 911.27 508.85 976.4 519.38 976.4 573.98 976.4 573.98 921.8 573.98 911.27 508.85 911.27"/><polygon class="cls-3" points="573.98 976.4 519.38 976.4 508.85 976.4 519.38 986.93 584.51 986.93 573.98 976.4"/><polygon class="cls-4" points="573.98 911.27 573.98 921.8 573.98 976.4 584.51 986.93 584.51 921.8 573.98 911.27"/><polygon class="cls-2" points="579.24 840.88 579.24 906 589.77 906 644.37 906 644.37 851.41 644.37 840.88 579.24 840.88"/><polygon class="cls-3" points="644.37 906 589.77 906 579.24 906 589.77 916.54 654.9 916.54 644.37 906"/><polygon class="cls-4" points="644.37 840.88 644.37 851.41 644.37 906 654.9 916.54 654.9 851.41 644.37 840.88"/><polygon class="cls-2" points="579.24 911.27 579.24 976.4 589.77 976.4 644.37 976.4 644.37 921.8 644.37 911.27 579.24 911.27"/><polygon class="cls-3" points="644.37 976.4 589.77 976.4 579.24 976.4 589.77 986.93 654.9 986.93 644.37 976.4"/><polygon class="cls-4" points="644.37 911.27 644.37 921.8 644.37 976.4 654.9 986.93 654.9 921.8 644.37 911.27"/><polygon class="cls-2" points="649.63 840.88 649.63 906 660.17 906 714.76 906 714.76 851.41 714.76 840.88 649.63 840.88"/><polygon class="cls-3" points="714.76 906 660.17 906 649.63 906 660.17 916.54 725.29 916.54 714.76 906"/><polygon class="cls-4" points="714.76 840.88 714.76 851.41 714.76 906 725.29 916.54 725.29 851.41 714.76 840.88"/><polygon class="cls-2" points="400.63 1411.92 400.63 1477.04 411.16 1477.04 465.75 1477.04 465.75 1422.45 465.75 1411.92 400.63 1411.92"/><polygon class="cls-3" points="465.75 1477.04 411.16 1477.04 400.63 1477.04 411.16 1487.58 476.29 1487.58 465.75 1477.04"/><polygon class="cls-4" points="465.75 1411.92 465.75 1422.45 465.75 1477.04 476.29 1487.58 476.29 1422.45 465.75 1411.92"/><polygon class="cls-2" points="471.02 1341.53 471.02 1406.65 481.55 1406.65 536.15 1406.65 536.15 1352.06 536.15 1341.53 471.02 1341.53"/><polygon class="cls-3" points="536.15 1406.65 481.55 1406.65 471.02 1406.65 481.55 1417.18 546.68 1417.18 536.15 1406.65"/><polygon class="cls-4" points="536.15 1341.53 536.15 1352.06 536.15 1406.65 546.68 1417.18 546.68 1352.06 536.15 1341.53"/><polygon class="cls-2" points="471.02 1411.92 471.02 1477.04 481.55 1477.04 536.15 1477.04 536.15 1422.45 536.15 1411.92 471.02 1411.92"/><polygon class="cls-3" points="536.15 1477.04 481.55 1477.04 471.02 1477.04 481.55 1487.58 546.68 1487.58 536.15 1477.04"/><polygon class="cls-4" points="536.15 1411.92 536.15 1422.45 536.15 1477.04 546.68 1487.58 546.68 1422.45 536.15 1411.92"/><polygon class="cls-2" points="541.41 1341.53 541.41 1406.65 551.95 1406.65 606.54 1406.65 606.54 1352.06 606.54 1341.53 541.41 1341.53"/><polygon class="cls-3" points="606.54 1406.65 551.95 1406.65 541.41 1406.65 551.95 1417.18 617.07 1417.18 606.54 1406.65"/><polygon class="cls-4" points="606.54 1341.53 606.54 1352.06 606.54 1406.65 617.07 1417.18 617.07 1352.06 606.54 1341.53"/><polygon class="cls-2" points="2098.44 427.06 2098.44 492.18 2108.98 492.18 2163.57 492.18 2163.57 437.59 2163.57 427.06 2098.44 427.06"/><polygon class="cls-3" points="2163.57 492.18 2108.98 492.18 2098.44 492.18 2108.98 502.71 2174.1 502.71 2163.57 492.18"/><polygon class="cls-4" points="2163.57 427.06 2163.57 437.59 2163.57 492.18 2174.1 502.71 2174.1 437.59 2163.57 427.06"/><polygon class="cls-2" points="2168.84 356.66 2168.84 421.79 2179.37 421.79 2233.96 421.79 2233.96 367.2 2233.96 356.66 2168.84 356.66"/><polygon class="cls-3" points="2233.96 421.79 2179.37 421.79 2168.84 421.79 2179.37 432.32 2244.49 432.32 2233.96 421.79"/><polygon class="cls-4" points="2233.96 356.66 2233.96 367.2 2233.96 421.79 2244.49 432.32 2244.49 367.2 2233.96 356.66"/><polygon class="cls-2" points="2168.84 427.06 2168.84 492.18 2179.37 492.18 2233.96 492.18 2233.96 437.59 2233.96 427.06 2168.84 427.06"/><polygon class="cls-3" points="2233.96 492.18 2179.37 492.18 2168.84 492.18 2179.37 502.71 2244.49 502.71 2233.96 492.18"/><polygon class="cls-4" points="2233.96 427.06 2233.96 437.59 2233.96 492.18 2244.49 502.71 2244.49 437.59 2233.96 427.06"/><polygon class="cls-2" points="2239.23 356.66 2239.23 421.79 2249.76 421.79 2304.36 421.79 2304.36 367.2 2304.36 356.66 2239.23 356.66"/><polygon class="cls-3" points="2304.36 421.79 2249.76 421.79 2239.23 421.79 2249.76 432.32 2314.89 432.32 2304.36 421.79"/><polygon class="cls-4" points="2304.36 356.66 2304.36 367.2 2304.36 421.79 2314.89 432.32 2314.89 367.2 2304.36 356.66"/><polygon class="cls-2" points="1427.07 359.3 1427.07 424.42 1437.61 424.42 1492.2 424.42 1492.2 369.83 1492.2 359.3 1427.07 359.3"/><polygon class="cls-3" points="1492.2 424.42 1437.61 424.42 1427.07 424.42 1437.61 434.95 1502.73 434.95 1492.2 424.42"/><polygon class="cls-4" points="1492.2 359.3 1492.2 369.83 1492.2 424.42 1502.73 434.95 1502.73 369.83 1492.2 359.3"/><polygon class="cls-2" points="1497.46 288.9 1497.46 354.03 1508 354.03 1562.59 354.03 1562.59 299.44 1562.59 288.9 1497.46 288.9"/><polygon class="cls-3" points="1562.59 354.03 1508 354.03 1497.46 354.03 1508 364.56 1573.12 364.56 1562.59 354.03"/><polygon class="cls-4" points="1562.59 288.9 1562.59 299.44 1562.59 354.03 1573.12 364.56 1573.12 299.44 1562.59 288.9"/><polygon class="cls-2" points="1497.46 359.3 1497.46 424.42 1508 424.42 1562.59 424.42 1562.59 369.83 1562.59 359.3 1497.46 359.3"/><polygon class="cls-3" points="1562.59 424.42 1508 424.42 1497.46 424.42 1508 434.95 1573.12 434.95 1562.59 424.42"/><polygon class="cls-4" points="1562.59 359.3 1562.59 369.83 1562.59 424.42 1573.12 434.95 1573.12 369.83 1562.59 359.3"/><polygon class="cls-2" points="1567.86 288.9 1567.86 354.03 1578.39 354.03 1632.98 354.03 1632.98 299.44 1632.98 288.9 1567.86 288.9"/><polygon class="cls-3" points="1632.98 354.03 1578.39 354.03 1567.86 354.03 1578.39 364.56 1643.52 364.56 1632.98 354.03"/><polygon class="cls-4" points="1632.98 288.9 1632.98 299.44 1632.98 354.03 1643.52 364.56 1643.52 299.44 1632.98 288.9"/><polygon class="cls-2" points="1489.57 895.47 1489.57 960.6 1500.1 960.6 1554.69 960.6 1554.69 906 1554.69 895.47 1489.57 895.47"/><polygon class="cls-3" points="1554.69 960.6 1500.1 960.6 1489.57 960.6 1500.1 971.13 1565.22 971.13 1554.69 960.6"/><polygon class="cls-4" points="1554.69 895.47 1554.69 906 1554.69 960.6 1565.22 971.13 1565.22 906 1554.69 895.47"/><polygon class="cls-2" points="1559.96 825.08 1559.96 890.21 1570.49 890.21 1625.09 890.21 1625.09 835.61 1625.09 825.08 1559.96 825.08"/><polygon class="cls-3" points="1625.09 890.21 1570.49 890.21 1559.96 890.21 1570.49 900.74 1635.62 900.74 1625.09 890.21"/><polygon class="cls-4" points="1625.09 825.08 1625.09 835.61 1625.09 890.21 1635.62 900.74 1635.62 835.61 1625.09 825.08"/><polygon class="cls-2" points="1559.96 895.47 1559.96 960.6 1570.49 960.6 1625.09 960.6 1625.09 906 1625.09 895.47 1559.96 895.47"/><polygon class="cls-3" points="1625.09 960.6 1570.49 960.6 1559.96 960.6 1570.49 971.13 1635.62 971.13 1625.09 960.6"/><polygon class="cls-4" points="1625.09 895.47 1625.09 906 1625.09 960.6 1635.62 971.13 1635.62 906 1625.09 895.47"/><polygon class="cls-2" points="1630.35 825.08 1630.35 890.21 1640.88 890.21 1695.48 890.21 1695.48 835.61 1695.48 825.08 1630.35 825.08"/><polygon class="cls-3" points="1695.48 890.21 1640.88 890.21 1630.35 890.21 1640.88 900.74 1706.01 900.74 1695.48 890.21"/><polygon class="cls-4" points="1695.48 825.08 1695.48 835.61 1695.48 890.21 1706.01 900.74 1706.01 835.61 1695.48 825.08"/><polygon class="cls-20" points="218.67 605.04 218.67 670.16 229.2 670.16 283.8 670.16 283.8 615.57 283.8 605.04 218.67 605.04"/><polygon class="cls-21" points="283.8 670.16 229.2 670.16 218.67 670.16 229.2 680.7 294.33 680.7 283.8 670.16"/><polygon class="cls-22" points="283.8 605.04 283.8 615.57 283.8 670.16 294.33 680.7 294.33 615.57 283.8 605.04"/><polygon class="cls-20" points="289.06 605.04 289.06 670.16 299.6 670.16 354.19 670.16 354.19 615.57 354.19 605.04 289.06 605.04"/><polygon class="cls-21" points="354.19 670.16 299.6 670.16 289.06 670.16 299.6 680.7 364.72 680.7 354.19 670.16"/><polygon class="cls-22" points="354.19 605.04 354.19 615.57 354.19 670.16 364.72 680.7 364.72 615.57 354.19 605.04"/><polygon class="cls-20" points="289.06 675.43 289.06 740.56 299.6 740.56 354.19 740.56 354.19 685.96 354.19 675.43 289.06 675.43"/><polygon class="cls-21" points="354.19 740.56 299.6 740.56 289.06 740.56 299.6 751.09 364.72 751.09 354.19 740.56"/><polygon class="cls-22" points="354.19 675.43 354.19 685.96 354.19 740.56 364.72 751.09 364.72 685.96 354.19 675.43"/><polygon class="cls-20" points="359.46 675.43 359.46 740.56 369.99 740.56 424.58 740.56 424.58 685.96 424.58 675.43 359.46 675.43"/><polygon class="cls-21" points="424.58 740.56 369.99 740.56 359.46 740.56 369.99 751.09 435.12 751.09 424.58 740.56"/><polygon class="cls-22" points="424.58 675.43 424.58 685.96 424.58 740.56 435.12 751.09 435.12 685.96 424.58 675.43"/><polygon class="cls-20" points="456.6 1062.59 456.6 1127.71 467.13 1127.71 521.73 1127.71 521.73 1073.12 521.73 1062.59 456.6 1062.59"/><polygon class="cls-21" points="521.73 1127.71 467.13 1127.71 456.6 1127.71 467.13 1138.25 532.26 1138.25 521.73 1127.71"/><polygon class="cls-22" points="521.73 1062.59 521.73 1073.12 521.73 1127.71 532.26 1138.25 532.26 1073.12 521.73 1062.59"/><polygon class="cls-20" points="526.99 1062.59 526.99 1127.71 537.52 1127.71 592.12 1127.71 592.12 1073.12 592.12 1062.59 526.99 1062.59"/><polygon class="cls-21" points="592.12 1127.71 537.52 1127.71 526.99 1127.71 537.52 1138.25 602.65 1138.25 592.12 1127.71"/><polygon class="cls-22" points="592.12 1062.59 592.12 1073.12 592.12 1127.71 602.65 1138.25 602.65 1073.12 592.12 1062.59"/><polygon class="cls-20" points="526.99 1132.98 526.99 1198.11 537.52 1198.11 592.12 1198.11 592.12 1143.51 592.12 1132.98 526.99 1132.98"/><polygon class="cls-21" points="592.12 1198.11 537.52 1198.11 526.99 1198.11 537.52 1208.64 602.65 1208.64 592.12 1198.11"/><polygon class="cls-22" points="592.12 1132.98 592.12 1143.51 592.12 1198.11 602.65 1208.64 602.65 1143.51 592.12 1132.98"/><polygon class="cls-20" points="597.38 1132.98 597.38 1198.11 607.92 1198.11 662.51 1198.11 662.51 1143.51 662.51 1132.98 597.38 1132.98"/><polygon class="cls-21" points="662.51 1198.11 607.92 1198.11 597.38 1198.11 607.92 1208.64 673.04 1208.64 662.51 1198.11"/><polygon class="cls-22" points="662.51 1132.98 662.51 1143.51 662.51 1198.11 673.04 1208.64 673.04 1143.51 662.51 1132.98"/><polygon class="cls-20" points="898.35 1016.86 898.35 1081.99 908.88 1081.99 963.48 1081.99 963.48 1027.39 963.48 1016.86 898.35 1016.86"/><polygon class="cls-21" points="963.48 1081.99 908.88 1081.99 898.35 1081.99 908.88 1092.52 974.01 1092.52 963.48 1081.99"/><polygon class="cls-22" points="963.48 1016.86 963.48 1027.39 963.48 1081.99 974.01 1092.52 974.01 1027.39 963.48 1016.86"/><polygon class="cls-20" points="968.74 1016.86 968.74 1081.99 979.28 1081.99 1033.87 1081.99 1033.87 1027.39 1033.87 1016.86 968.74 1016.86"/><polygon class="cls-21" points="1033.87 1081.99 979.28 1081.99 968.74 1081.99 979.28 1092.52 1044.4 1092.52 1033.87 1081.99"/><polygon class="cls-22" points="1033.87 1016.86 1033.87 1027.39 1033.87 1081.99 1044.4 1092.52 1044.4 1027.39 1033.87 1016.86"/><polygon class="cls-20" points="968.74 1087.25 968.74 1152.38 979.28 1152.38 1033.87 1152.38 1033.87 1097.78 1033.87 1087.25 968.74 1087.25"/><polygon class="cls-21" points="1033.87 1152.38 979.28 1152.38 968.74 1152.38 979.28 1162.91 1044.4 1162.91 1033.87 1152.38"/><polygon class="cls-22" points="1033.87 1087.25 1033.87 1097.78 1033.87 1152.38 1044.4 1162.91 1044.4 1097.78 1033.87 1087.25"/><polygon class="cls-20" points="1039.14 1087.25 1039.14 1152.38 1049.67 1152.38 1104.26 1152.38 1104.26 1097.78 1104.26 1087.25 1039.14 1087.25"/><polygon class="cls-21" points="1104.26 1152.38 1049.67 1152.38 1039.14 1152.38 1049.67 1162.91 1114.8 1162.91 1104.26 1152.38"/><polygon class="cls-22" points="1104.26 1087.25 1104.26 1097.78 1104.26 1152.38 1114.8 1162.91 1114.8 1097.78 1104.26 1087.25"/><polygon class="cls-20" points="893.09 1414.55 893.09 1479.68 903.62 1479.68 958.21 1479.68 958.21 1425.08 958.21 1414.55 893.09 1414.55"/><polygon class="cls-21" points="958.21 1479.68 903.62 1479.68 893.09 1479.68 903.62 1490.21 968.74 1490.21 958.21 1479.68"/><polygon class="cls-22" points="958.21 1414.55 958.21 1425.08 958.21 1479.68 968.74 1490.21 968.74 1425.08 958.21 1414.55"/><polygon class="cls-20" points="963.48 1414.55 963.48 1479.68 974.01 1479.68 1028.6 1479.68 1028.6 1425.08 1028.6 1414.55 963.48 1414.55"/><polygon class="cls-21" points="1028.6 1479.68 974.01 1479.68 963.48 1479.68 974.01 1490.21 1039.14 1490.21 1028.6 1479.68"/><polygon class="cls-22" points="1028.6 1414.55 1028.6 1425.08 1028.6 1479.68 1039.14 1490.21 1039.14 1425.08 1028.6 1414.55"/><polygon class="cls-20" points="963.48 1484.94 963.48 1550.07 974.01 1550.07 1028.6 1550.07 1028.6 1495.47 1028.6 1484.94 963.48 1484.94"/><polygon class="cls-21" points="1028.6 1550.07 974.01 1550.07 963.48 1550.07 974.01 1560.6 1039.14 1560.6 1028.6 1550.07"/><polygon class="cls-22" points="1028.6 1484.94 1028.6 1495.47 1028.6 1550.07 1039.14 1560.6 1039.14 1495.47 1028.6 1484.94"/><polygon class="cls-20" points="1033.87 1484.94 1033.87 1550.07 1044.4 1550.07 1099 1550.07 1099 1495.47 1099 1484.94 1033.87 1484.94"/><polygon class="cls-21" points="1099 1550.07 1044.4 1550.07 1033.87 1550.07 1044.4 1560.6 1109.53 1560.6 1099 1550.07"/><polygon class="cls-22" points="1099 1484.94 1099 1495.47 1099 1550.07 1109.53 1560.6 1109.53 1495.47 1099 1484.94"/><polygon class="cls-20" points="1589.89 1057.32 1589.89 1122.45 1600.42 1122.45 1655.02 1122.45 1655.02 1067.85 1655.02 1057.32 1589.89 1057.32"/><polygon class="cls-21" points="1655.02 1122.45 1600.42 1122.45 1589.89 1122.45 1600.42 1132.98 1665.55 1132.98 1655.02 1122.45"/><polygon class="cls-22" points="1655.02 1057.32 1655.02 1067.85 1655.02 1122.45 1665.55 1132.98 1665.55 1067.85 1655.02 1057.32"/><polygon class="cls-20" points="1660.28 1057.32 1660.28 1122.45 1670.81 1122.45 1725.41 1122.45 1725.41 1067.85 1725.41 1057.32 1660.28 1057.32"/><polygon class="cls-21" points="1725.41 1122.45 1670.81 1122.45 1660.28 1122.45 1670.81 1132.98 1735.94 1132.98 1725.41 1122.45"/><polygon class="cls-22" points="1725.41 1057.32 1725.41 1067.85 1725.41 1122.45 1735.94 1132.98 1735.94 1067.85 1725.41 1057.32"/><polygon class="cls-20" points="1660.28 1127.71 1660.28 1192.84 1670.81 1192.84 1725.41 1192.84 1725.41 1138.25 1725.41 1127.71 1660.28 1127.71"/><polygon class="cls-21" points="1725.41 1192.84 1670.81 1192.84 1660.28 1192.84 1670.81 1203.37 1735.94 1203.37 1725.41 1192.84"/><polygon class="cls-22" points="1725.41 1127.71 1725.41 1138.25 1725.41 1192.84 1735.94 1203.37 1735.94 1138.25 1725.41 1127.71"/><polygon class="cls-20" points="1730.67 1127.71 1730.67 1192.84 1741.21 1192.84 1795.8 1192.84 1795.8 1138.25 1795.8 1127.71 1730.67 1127.71"/><polygon class="cls-21" points="1795.8 1192.84 1741.21 1192.84 1730.67 1192.84 1741.21 1203.37 1806.33 1203.37 1795.8 1192.84"/><polygon class="cls-22" points="1795.8 1127.71 1795.8 1138.25 1795.8 1192.84 1806.33 1203.37 1806.33 1138.25 1795.8 1127.71"/><polygon class="cls-20" points="2144.82 700.09 2144.82 765.22 2155.35 765.22 2209.94 765.22 2209.94 710.63 2209.94 700.09 2144.82 700.09"/><polygon class="cls-21" points="2209.94 765.22 2155.35 765.22 2144.82 765.22 2155.35 775.75 2220.47 775.75 2209.94 765.22"/><polygon class="cls-22" points="2209.94 700.09 2209.94 710.63 2209.94 765.22 2220.47 775.75 2220.47 710.63 2209.94 700.09"/><polygon class="cls-20" points="2215.21 700.09 2215.21 765.22 2225.74 765.22 2280.33 765.22 2280.33 710.63 2280.33 700.09 2215.21 700.09"/><polygon class="cls-21" points="2280.33 765.22 2225.74 765.22 2215.21 765.22 2225.74 775.75 2290.87 775.75 2280.33 765.22"/><polygon class="cls-22" points="2280.33 700.09 2280.33 710.63 2280.33 765.22 2290.87 775.75 2290.87 710.63 2280.33 700.09"/><polygon class="cls-20" points="2215.21 770.49 2215.21 835.61 2225.74 835.61 2280.33 835.61 2280.33 781.02 2280.33 770.49 2215.21 770.49"/><polygon class="cls-21" points="2280.33 835.61 2225.74 835.61 2215.21 835.61 2225.74 846.14 2290.87 846.14 2280.33 835.61"/><polygon class="cls-22" points="2280.33 770.49 2280.33 781.02 2280.33 835.61 2290.87 846.14 2290.87 781.02 2280.33 770.49"/><polygon class="cls-20" points="2285.6 770.49 2285.6 835.61 2296.13 835.61 2350.73 835.61 2350.73 781.02 2350.73 770.49 2285.6 770.49"/><polygon class="cls-21" points="2350.73 835.61 2296.13 835.61 2285.6 835.61 2296.13 846.14 2361.26 846.14 2350.73 835.61"/><polygon class="cls-22" points="2350.73 770.49 2350.73 781.02 2350.73 835.61 2361.26 846.14 2361.26 781.02 2350.73 770.49"/><polygon class="cls-20" points="2112.25 1328.36 2112.25 1393.49 2122.78 1393.49 2177.38 1393.49 2177.38 1338.89 2177.38 1328.36 2112.25 1328.36"/><polygon class="cls-21" points="2177.38 1393.49 2122.78 1393.49 2112.25 1393.49 2122.78 1404.02 2187.91 1404.02 2177.38 1393.49"/><polygon class="cls-22" points="2177.38 1328.36 2177.38 1338.89 2177.38 1393.49 2187.91 1404.02 2187.91 1338.89 2177.38 1328.36"/><polygon class="cls-20" points="2182.64 1328.36 2182.64 1393.49 2193.18 1393.49 2247.77 1393.49 2247.77 1338.89 2247.77 1328.36 2182.64 1328.36"/><polygon class="cls-21" points="2247.77 1393.49 2193.18 1393.49 2182.64 1393.49 2193.18 1404.02 2258.3 1404.02 2247.77 1393.49"/><polygon class="cls-22" points="2247.77 1328.36 2247.77 1338.89 2247.77 1393.49 2258.3 1404.02 2258.3 1338.89 2247.77 1328.36"/><polygon class="cls-20" points="2182.64 1398.75 2182.64 1463.88 2193.18 1463.88 2247.77 1463.88 2247.77 1409.28 2247.77 1398.75 2182.64 1398.75"/><polygon class="cls-21" points="2247.77 1463.88 2193.18 1463.88 2182.64 1463.88 2193.18 1474.41 2258.3 1474.41 2247.77 1463.88"/><polygon class="cls-22" points="2247.77 1398.75 2247.77 1409.28 2247.77 1463.88 2258.3 1474.41 2258.3 1409.28 2247.77 1398.75"/><polygon class="cls-20" points="2253.04 1398.75 2253.04 1463.88 2263.57 1463.88 2318.16 1463.88 2318.16 1409.28 2318.16 1398.75 2253.04 1398.75"/><polygon class="cls-21" points="2318.16 1463.88 2263.57 1463.88 2253.04 1463.88 2263.57 1474.41 2328.7 1474.41 2318.16 1463.88"/><polygon class="cls-22" points="2318.16 1398.75 2318.16 1409.28 2318.16 1463.88 2328.7 1474.41 2328.7 1409.28 2318.16 1398.75"/><polygon class="cls-11" points="1069.07 418.52 1069.07 483.65 1079.6 483.65 1134.19 483.65 1134.19 429.06 1134.19 418.52 1069.07 418.52"/><polygon class="cls-12" points="1134.19 483.65 1079.6 483.65 1069.07 483.65 1079.6 494.18 1144.72 494.18 1134.19 483.65"/><polygon class="cls-13" points="1134.19 418.52 1134.19 429.06 1134.19 483.65 1144.72 494.18 1144.72 429.06 1134.19 418.52"/><polygon class="cls-11" points="1069.07 488.92 1069.07 554.04 1079.6 554.04 1134.19 554.04 1134.19 499.45 1134.19 488.92 1069.07 488.92"/><polygon class="cls-12" points="1134.19 554.04 1079.6 554.04 1069.07 554.04 1079.6 564.58 1144.72 564.58 1134.19 554.04"/><polygon class="cls-13" points="1134.19 488.92 1134.19 499.45 1134.19 554.04 1144.72 564.58 1144.72 499.45 1134.19 488.92"/><polygon class="cls-11" points="1069.07 559.31 1069.07 624.43 1079.6 624.43 1134.19 624.43 1134.19 569.84 1134.19 559.31 1069.07 559.31"/><polygon class="cls-12" points="1134.19 624.43 1079.6 624.43 1069.07 624.43 1079.6 634.97 1144.72 634.97 1134.19 624.43"/><polygon class="cls-13" points="1134.19 559.31 1134.19 569.84 1134.19 624.43 1144.72 634.97 1144.72 569.84 1134.19 559.31"/><polygon class="cls-11" points="1139.46 488.92 1139.46 554.04 1149.99 554.04 1204.59 554.04 1204.59 499.45 1204.59 488.92 1139.46 488.92"/><polygon class="cls-12" points="1204.59 554.04 1149.99 554.04 1139.46 554.04 1149.99 564.58 1215.12 564.58 1204.59 554.04"/><polygon class="cls-13" points="1204.59 488.92 1204.59 499.45 1204.59 554.04 1215.12 564.58 1215.12 499.45 1204.59 488.92"/><polygon class="cls-11" points="55.83 868.18 55.83 933.3 66.37 933.3 120.96 933.3 120.96 878.71 120.96 868.18 55.83 868.18"/><polygon class="cls-12" points="120.96 933.3 66.37 933.3 55.83 933.3 66.37 943.83 131.49 943.83 120.96 933.3"/><polygon class="cls-13" points="120.96 868.18 120.96 878.71 120.96 933.3 131.49 943.83 131.49 878.71 120.96 868.18"/><polygon class="cls-11" points="55.83 938.57 55.83 1003.7 66.37 1003.7 120.96 1003.7 120.96 949.1 120.96 938.57 55.83 938.57"/><polygon class="cls-12" points="120.96 1003.7 66.37 1003.7 55.83 1003.7 66.37 1014.23 131.49 1014.23 120.96 1003.7"/><polygon class="cls-13" points="120.96 938.57 120.96 949.1 120.96 1003.7 131.49 1014.23 131.49 949.1 120.96 938.57"/><polygon class="cls-11" points="55.83 1008.96 55.83 1074.09 66.37 1074.09 120.96 1074.09 120.96 1019.49 120.96 1008.96 55.83 1008.96"/><polygon class="cls-12" points="120.96 1074.09 66.37 1074.09 55.83 1074.09 66.37 1084.62 131.49 1084.62 120.96 1074.09"/><polygon class="cls-13" points="120.96 1008.96 120.96 1019.49 120.96 1074.09 131.49 1084.62 131.49 1019.49 120.96 1008.96"/><polygon class="cls-11" points="126.23 938.57 126.23 1003.7 136.76 1003.7 191.35 1003.7 191.35 949.1 191.35 938.57 126.23 938.57"/><polygon class="cls-12" points="191.35 1003.7 136.76 1003.7 126.23 1003.7 136.76 1014.23 201.88 1014.23 191.35 1003.7"/><polygon class="cls-13" points="191.35 938.57 191.35 949.1 191.35 1003.7 201.88 1014.23 201.88 949.1 191.35 938.57"/><polygon class="cls-11" points="682.05 1360.92 682.05 1426.05 692.59 1426.05 747.18 1426.05 747.18 1371.45 747.18 1360.92 682.05 1360.92"/><polygon class="cls-12" points="747.18 1426.05 692.59 1426.05 682.05 1426.05 692.59 1436.58 757.71 1436.58 747.18 1426.05"/><polygon class="cls-13" points="747.18 1360.92 747.18 1371.45 747.18 1426.05 757.71 1436.58 757.71 1371.45 747.18 1360.92"/><polygon class="cls-11" points="682.05 1431.32 682.05 1496.44 692.59 1496.44 747.18 1496.44 747.18 1441.85 747.18 1431.32 682.05 1431.32"/><polygon class="cls-12" points="747.18 1496.44 692.59 1496.44 682.05 1496.44 692.59 1506.97 757.71 1506.97 747.18 1496.44"/><polygon class="cls-13" points="747.18 1431.32 747.18 1441.85 747.18 1496.44 757.71 1506.97 757.71 1441.85 747.18 1431.32"/><polygon class="cls-11" points="682.05 1501.71 682.05 1566.83 692.59 1566.83 747.18 1566.83 747.18 1512.24 747.18 1501.71 682.05 1501.71"/><polygon class="cls-12" points="747.18 1566.83 692.59 1566.83 682.05 1566.83 692.59 1577.37 757.71 1577.37 747.18 1566.83"/><polygon class="cls-13" points="747.18 1501.71 747.18 1512.24 747.18 1566.83 757.71 1577.37 757.71 1512.24 747.18 1501.71"/><polygon class="cls-11" points="752.45 1431.32 752.45 1496.44 762.98 1496.44 817.57 1496.44 817.57 1441.85 817.57 1431.32 752.45 1431.32"/><polygon class="cls-12" points="817.57 1496.44 762.98 1496.44 752.45 1496.44 762.98 1506.97 828.1 1506.97 817.57 1496.44"/><polygon class="cls-13" points="817.57 1431.32 817.57 1441.85 817.57 1496.44 828.1 1506.97 828.1 1441.85 817.57 1431.32"/><polygon class="cls-11" points="1494.83 1285.26 1494.83 1350.39 1505.37 1350.39 1559.96 1350.39 1559.96 1295.8 1559.96 1285.26 1494.83 1285.26"/><polygon class="cls-12" points="1559.96 1350.39 1505.37 1350.39 1494.83 1350.39 1505.37 1360.92 1570.49 1360.92 1559.96 1350.39"/><polygon class="cls-13" points="1559.96 1285.26 1559.96 1295.8 1559.96 1350.39 1570.49 1360.92 1570.49 1295.8 1559.96 1285.26"/><polygon class="cls-11" points="1494.83 1355.66 1494.83 1420.78 1505.37 1420.78 1559.96 1420.78 1559.96 1366.19 1559.96 1355.66 1494.83 1355.66"/><polygon class="cls-12" points="1559.96 1420.78 1505.37 1420.78 1494.83 1420.78 1505.37 1431.32 1570.49 1431.32 1559.96 1420.78"/><polygon class="cls-13" points="1559.96 1355.66 1559.96 1366.19 1559.96 1420.78 1570.49 1431.32 1570.49 1366.19 1559.96 1355.66"/><polygon class="cls-11" points="1494.83 1426.05 1494.83 1491.17 1505.37 1491.17 1559.96 1491.17 1559.96 1436.58 1559.96 1426.05 1494.83 1426.05"/><polygon class="cls-12" points="1559.96 1491.17 1505.37 1491.17 1494.83 1491.17 1505.37 1501.71 1570.49 1501.71 1559.96 1491.17"/><polygon class="cls-13" points="1559.96 1426.05 1559.96 1436.58 1559.96 1491.17 1570.49 1501.71 1570.49 1436.58 1559.96 1426.05"/><polygon class="cls-11" points="1565.22 1355.66 1565.22 1420.78 1575.76 1420.78 1630.35 1420.78 1630.35 1366.19 1630.35 1355.66 1565.22 1355.66"/><polygon class="cls-12" points="1630.35 1420.78 1575.76 1420.78 1565.22 1420.78 1575.76 1431.32 1640.88 1431.32 1630.35 1420.78"/><polygon class="cls-13" points="1630.35 1355.66 1630.35 1366.19 1630.35 1420.78 1640.88 1431.32 1640.88 1366.19 1630.35 1355.66"/><polygon class="cls-11" points="1902.1 488.92 1902.1 554.04 1912.63 554.04 1967.22 554.04 1967.22 499.45 1967.22 488.92 1902.1 488.92"/><polygon class="cls-12" points="1967.22 554.04 1912.63 554.04 1902.1 554.04 1912.63 564.58 1977.76 564.58 1967.22 554.04"/><polygon class="cls-13" points="1967.22 488.92 1967.22 499.45 1967.22 554.04 1977.76 564.58 1977.76 499.45 1967.22 488.92"/><polygon class="cls-11" points="1902.1 559.31 1902.1 624.43 1912.63 624.43 1967.22 624.43 1967.22 569.84 1967.22 559.31 1902.1 559.31"/><polygon class="cls-12" points="1967.22 624.43 1912.63 624.43 1902.1 624.43 1912.63 634.97 1977.76 634.97 1967.22 624.43"/><polygon class="cls-13" points="1967.22 559.31 1967.22 569.84 1967.22 624.43 1977.76 634.97 1977.76 569.84 1967.22 559.31"/><polygon class="cls-11" points="1902.1 629.7 1902.1 694.83 1912.63 694.83 1967.22 694.83 1967.22 640.23 1967.22 629.7 1902.1 629.7"/><polygon class="cls-12" points="1967.22 694.83 1912.63 694.83 1902.1 694.83 1912.63 705.36 1977.76 705.36 1967.22 694.83"/><polygon class="cls-13" points="1967.22 629.7 1967.22 640.23 1967.22 694.83 1977.76 705.36 1977.76 640.23 1967.22 629.7"/><polygon class="cls-11" points="1972.49 559.31 1972.49 624.43 1983.02 624.43 2037.62 624.43 2037.62 569.84 2037.62 559.31 1972.49 559.31"/><polygon class="cls-12" points="2037.62 624.43 1983.02 624.43 1972.49 624.43 1983.02 634.97 2048.15 634.97 2037.62 624.43"/><polygon class="cls-13" points="2037.62 559.31 2037.62 569.84 2037.62 624.43 2048.15 634.97 2048.15 569.84 2037.62 559.31"/><polygon class="cls-11" points="1668.18 53.19 1668.18 118.32 1678.71 118.32 1733.31 118.32 1733.31 63.72 1733.31 53.19 1668.18 53.19"/><polygon class="cls-12" points="1733.31 118.32 1678.71 118.32 1668.18 118.32 1678.71 128.85 1743.84 128.85 1733.31 118.32"/><polygon class="cls-13" points="1733.31 53.19 1733.31 63.72 1733.31 118.32 1743.84 128.85 1743.84 63.72 1733.31 53.19"/><polygon class="cls-11" points="1668.18 123.58 1668.18 188.71 1678.71 188.71 1733.31 188.71 1733.31 134.12 1733.31 123.58 1668.18 123.58"/><polygon class="cls-12" points="1733.31 188.71 1678.71 188.71 1668.18 188.71 1678.71 199.24 1743.84 199.24 1733.31 188.71"/><polygon class="cls-13" points="1733.31 123.58 1733.31 134.12 1733.31 188.71 1743.84 199.24 1743.84 134.12 1733.31 123.58"/><polygon class="cls-11" points="1668.18 193.97 1668.18 259.1 1678.71 259.1 1733.31 259.1 1733.31 204.51 1733.31 193.97 1668.18 193.97"/><polygon class="cls-12" points="1733.31 259.1 1678.71 259.1 1668.18 259.1 1678.71 269.63 1743.84 269.63 1733.31 259.1"/><polygon class="cls-13" points="1733.31 193.97 1733.31 204.51 1733.31 259.1 1743.84 269.63 1743.84 204.51 1733.31 193.97"/><polygon class="cls-11" points="1738.57 123.58 1738.57 188.71 1749.11 188.71 1803.7 188.71 1803.7 134.12 1803.7 123.58 1738.57 123.58"/><polygon class="cls-12" points="1803.7 188.71 1749.11 188.71 1738.57 188.71 1749.11 199.24 1814.23 199.24 1803.7 188.71"/><polygon class="cls-13" points="1803.7 123.58 1803.7 134.12 1803.7 188.71 1814.23 199.24 1814.23 134.12 1803.7 123.58"/><polygon class="cls-8" points="681.17 559.31 681.17 624.43 691.71 624.43 746.3 624.43 746.3 569.84 746.3 559.31 681.17 559.31"/><polygon class="cls-9" points="746.3 624.43 691.71 624.43 681.17 624.43 691.71 634.97 756.83 634.97 746.3 624.43"/><polygon class="cls-10" points="746.3 559.31 746.3 569.84 746.3 624.43 756.83 634.97 756.83 569.84 746.3 559.31"/><polygon class="cls-8" points="681.17 629.7 681.17 694.83 691.71 694.83 746.3 694.83 746.3 640.23 746.3 629.7 681.17 629.7"/><polygon class="cls-9" points="746.3 694.83 691.71 694.83 681.17 694.83 691.71 705.36 756.83 705.36 746.3 694.83"/><polygon class="cls-10" points="746.3 629.7 746.3 640.23 746.3 694.83 756.83 705.36 756.83 640.23 746.3 629.7"/><polygon class="cls-8" points="681.17 700.09 681.17 765.22 691.71 765.22 746.3 765.22 746.3 710.63 746.3 700.09 681.17 700.09"/><polygon class="cls-9" points="746.3 765.22 691.71 765.22 681.17 765.22 691.71 775.75 756.83 775.75 746.3 765.22"/><polygon class="cls-10" points="746.3 700.09 746.3 710.63 746.3 765.22 756.83 775.75 756.83 710.63 746.3 700.09"/><polygon class="cls-8" points="751.57 559.31 751.57 624.43 762.1 624.43 816.69 624.43 816.69 569.84 816.69 559.31 751.57 559.31"/><polygon class="cls-9" points="816.69 624.43 762.1 624.43 751.57 624.43 762.1 634.97 827.23 634.97 816.69 624.43"/><polygon class="cls-10" points="816.69 559.31 816.69 569.84 816.69 624.43 827.23 634.97 827.23 569.84 816.69 559.31"/><polygon class="cls-8" points="1070.92 724.76 1070.92 789.88 1081.45 789.88 1136.04 789.88 1136.04 735.29 1136.04 724.76 1070.92 724.76"/><polygon class="cls-9" points="1136.04 789.88 1081.45 789.88 1070.92 789.88 1081.45 800.42 1146.58 800.42 1136.04 789.88"/><polygon class="cls-10" points="1136.04 724.76 1136.04 735.29 1136.04 789.88 1146.58 800.42 1146.58 735.29 1136.04 724.76"/><polygon class="cls-8" points="1070.92 795.15 1070.92 860.28 1081.45 860.28 1136.04 860.28 1136.04 805.68 1136.04 795.15 1070.92 795.15"/><polygon class="cls-9" points="1136.04 860.28 1081.45 860.28 1070.92 860.28 1081.45 870.81 1146.58 870.81 1136.04 860.28"/><polygon class="cls-10" points="1136.04 795.15 1136.04 805.68 1136.04 860.28 1146.58 870.81 1146.58 805.68 1136.04 795.15"/><polygon class="cls-8" points="1070.92 865.54 1070.92 930.67 1081.45 930.67 1136.04 930.67 1136.04 876.08 1136.04 865.54 1070.92 865.54"/><polygon class="cls-9" points="1136.04 930.67 1081.45 930.67 1070.92 930.67 1081.45 941.2 1146.58 941.2 1136.04 930.67"/><polygon class="cls-10" points="1136.04 865.54 1136.04 876.08 1136.04 930.67 1146.58 941.2 1146.58 876.08 1136.04 865.54"/><polygon class="cls-8" points="1141.31 724.76 1141.31 789.88 1151.84 789.88 1206.44 789.88 1206.44 735.29 1206.44 724.76 1141.31 724.76"/><polygon class="cls-9" points="1206.44 789.88 1151.84 789.88 1141.31 789.88 1151.84 800.42 1216.97 800.42 1206.44 789.88"/><polygon class="cls-10" points="1206.44 724.76 1206.44 735.29 1206.44 789.88 1216.97 800.42 1216.97 735.29 1206.44 724.76"/><polygon class="cls-8" points="1512.36 521.48 1512.36 586.61 1522.89 586.61 1577.48 586.61 1577.48 532.01 1577.48 521.48 1512.36 521.48"/><polygon class="cls-9" points="1577.48 586.61 1522.89 586.61 1512.36 586.61 1522.89 597.14 1588.02 597.14 1577.48 586.61"/><polygon class="cls-10" points="1577.48 521.48 1577.48 532.01 1577.48 586.61 1588.02 597.14 1588.02 532.01 1577.48 521.48"/><polygon class="cls-8" points="1512.36 591.87 1512.36 657 1522.89 657 1577.48 657 1577.48 602.4 1577.48 591.87 1512.36 591.87"/><polygon class="cls-9" points="1577.48 657 1522.89 657 1512.36 657 1522.89 667.53 1588.02 667.53 1577.48 657"/><polygon class="cls-10" points="1577.48 591.87 1577.48 602.4 1577.48 657 1588.02 667.53 1588.02 602.4 1577.48 591.87"/><polygon class="cls-8" points="1512.36 662.26 1512.36 727.39 1522.89 727.39 1577.48 727.39 1577.48 672.8 1577.48 662.26 1512.36 662.26"/><polygon class="cls-9" points="1577.48 727.39 1522.89 727.39 1512.36 727.39 1522.89 737.92 1588.02 737.92 1577.48 727.39"/><polygon class="cls-10" points="1577.48 662.26 1577.48 672.8 1577.48 727.39 1588.02 737.92 1588.02 672.8 1577.48 662.26"/><polygon class="cls-8" points="1582.75 521.48 1582.75 586.61 1593.28 586.61 1647.88 586.61 1647.88 532.01 1647.88 521.48 1582.75 521.48"/><polygon class="cls-9" points="1647.88 586.61 1593.28 586.61 1582.75 586.61 1593.28 597.14 1658.41 597.14 1647.88 586.61"/><polygon class="cls-10" points="1647.88 521.48 1647.88 532.01 1647.88 586.61 1658.41 597.14 1658.41 532.01 1647.88 521.48"/><polygon class="cls-8" points="2147.45 55.82 2147.45 120.95 2157.98 120.95 2212.57 120.95 2212.57 66.36 2212.57 55.82 2147.45 55.82"/><polygon class="cls-9" points="2212.57 120.95 2157.98 120.95 2147.45 120.95 2157.98 131.48 2223.11 131.48 2212.57 120.95"/><polygon class="cls-10" points="2212.57 55.82 2212.57 66.36 2212.57 120.95 2223.11 131.48 2223.11 66.36 2212.57 55.82"/><polygon class="cls-8" points="2147.45 126.22 2147.45 191.34 2157.98 191.34 2212.57 191.34 2212.57 136.75 2212.57 126.22 2147.45 126.22"/><polygon class="cls-9" points="2212.57 191.34 2157.98 191.34 2147.45 191.34 2157.98 201.87 2223.11 201.87 2212.57 191.34"/><polygon class="cls-10" points="2212.57 126.22 2212.57 136.75 2212.57 191.34 2223.11 201.87 2223.11 136.75 2212.57 126.22"/><polygon class="cls-8" points="2147.45 196.61 2147.45 261.73 2157.98 261.73 2212.57 261.73 2212.57 207.14 2212.57 196.61 2147.45 196.61"/><polygon class="cls-9" points="2212.57 261.73 2157.98 261.73 2147.45 261.73 2157.98 272.27 2223.11 272.27 2212.57 261.73"/><polygon class="cls-10" points="2212.57 196.61 2212.57 207.14 2212.57 261.73 2223.11 272.27 2223.11 207.14 2212.57 196.61"/><polygon class="cls-8" points="2217.84 55.82 2217.84 120.95 2228.37 120.95 2282.97 120.95 2282.97 66.36 2282.97 55.82 2217.84 55.82"/><polygon class="cls-9" points="2282.97 120.95 2228.37 120.95 2217.84 120.95 2228.37 131.48 2293.5 131.48 2282.97 120.95"/><polygon class="cls-10" points="2282.97 55.82 2282.97 66.36 2282.97 120.95 2293.5 131.48 2293.5 66.36 2282.97 55.82"/><polygon class="cls-8" points="2147.45 1000.1 2147.45 1065.22 2157.98 1065.22 2212.57 1065.22 2212.57 1010.63 2212.57 1000.1 2147.45 1000.1"/><polygon class="cls-9" points="2212.57 1065.22 2157.98 1065.22 2147.45 1065.22 2157.98 1075.75 2223.11 1075.75 2212.57 1065.22"/><polygon class="cls-10" points="2212.57 1000.1 2212.57 1010.63 2212.57 1065.22 2223.11 1075.75 2223.11 1010.63 2212.57 1000.1"/><polygon class="cls-8" points="2147.45 1070.49 2147.45 1135.61 2157.98 1135.61 2212.57 1135.61 2212.57 1081.02 2212.57 1070.49 2147.45 1070.49"/><polygon class="cls-9" points="2212.57 1135.61 2157.98 1135.61 2147.45 1135.61 2157.98 1146.15 2223.11 1146.15 2212.57 1135.61"/><polygon class="cls-10" points="2212.57 1070.49 2212.57 1081.02 2212.57 1135.61 2223.11 1146.15 2223.11 1081.02 2212.57 1070.49"/><polygon class="cls-8" points="2147.45 1140.88 2147.45 1206.01 2157.98 1206.01 2212.57 1206.01 2212.57 1151.41 2212.57 1140.88 2147.45 1140.88"/><polygon class="cls-9" points="2212.57 1206.01 2157.98 1206.01 2147.45 1206.01 2157.98 1216.54 2223.11 1216.54 2212.57 1206.01"/><polygon class="cls-10" points="2212.57 1140.88 2212.57 1151.41 2212.57 1206.01 2223.11 1216.54 2223.11 1151.41 2212.57 1140.88"/><polygon class="cls-8" points="2217.84 1000.1 2217.84 1065.22 2228.37 1065.22 2282.97 1065.22 2282.97 1010.63 2282.97 1000.1 2217.84 1000.1"/><polygon class="cls-9" points="2282.97 1065.22 2228.37 1065.22 2217.84 1065.22 2228.37 1075.75 2293.5 1075.75 2282.97 1065.22"/><polygon class="cls-10" points="2282.97 1000.1 2282.97 1010.63 2282.97 1065.22 2293.5 1075.75 2293.5 1010.63 2282.97 1000.1"/><polygon class="cls-8" points="1391.88 1037.92 1391.88 1103.05 1402.41 1103.05 1457 1103.05 1457 1048.46 1457 1037.92 1391.88 1037.92"/><polygon class="cls-9" points="1457 1103.05 1402.41 1103.05 1391.88 1103.05 1402.41 1113.58 1467.54 1113.58 1457 1103.05"/><polygon class="cls-10" points="1457 1037.92 1457 1048.46 1457 1103.05 1467.54 1113.58 1467.54 1048.46 1457 1037.92"/><polygon class="cls-8" points="1391.88 1108.32 1391.88 1173.44 1402.41 1173.44 1457 1173.44 1457 1118.85 1457 1108.32 1391.88 1108.32"/><polygon class="cls-9" points="1457 1173.44 1402.41 1173.44 1391.88 1173.44 1402.41 1183.97 1467.54 1183.97 1457 1173.44"/><polygon class="cls-10" points="1457 1108.32 1457 1118.85 1457 1173.44 1467.54 1183.97 1467.54 1118.85 1457 1108.32"/><polygon class="cls-8" points="1391.88 1178.71 1391.88 1243.84 1402.41 1243.84 1457 1243.84 1457 1189.24 1457 1178.71 1391.88 1178.71"/><polygon class="cls-9" points="1457 1243.84 1402.41 1243.84 1391.88 1243.84 1402.41 1254.37 1467.54 1254.37 1457 1243.84"/><polygon class="cls-10" points="1457 1178.71 1457 1189.24 1457 1243.84 1467.54 1254.37 1467.54 1189.24 1457 1178.71"/><polygon class="cls-8" points="1462.27 1037.92 1462.27 1103.05 1472.8 1103.05 1527.4 1103.05 1527.4 1048.46 1527.4 1037.92 1462.27 1037.92"/><polygon class="cls-9" points="1527.4 1103.05 1472.8 1103.05 1462.27 1103.05 1472.8 1113.58 1537.93 1113.58 1527.4 1103.05"/><polygon class="cls-10" points="1527.4 1037.92 1527.4 1048.46 1527.4 1103.05 1537.93 1113.58 1537.93 1048.46 1527.4 1037.92"/><polygon class="cls-14" points="286.43 1162.91 286.43 1228.04 296.96 1228.04 351.56 1228.04 351.56 1173.44 351.56 1162.91 286.43 1162.91"/><polygon class="cls-15" points="351.56 1228.04 296.96 1228.04 286.43 1228.04 296.96 1238.57 362.09 1238.57 351.56 1228.04"/><polygon class="cls-16" points="351.56 1162.91 351.56 1173.44 351.56 1228.04 362.09 1238.57 362.09 1173.44 351.56 1162.91"/><polygon class="cls-14" points="286.43 1233.3 286.43 1298.43 296.96 1298.43 351.56 1298.43 351.56 1243.84 351.56 1233.3 286.43 1233.3"/><polygon class="cls-15" points="351.56 1298.43 296.96 1298.43 286.43 1298.43 296.96 1308.96 362.09 1308.96 351.56 1298.43"/><polygon class="cls-16" points="351.56 1233.3 351.56 1243.84 351.56 1298.43 362.09 1308.96 362.09 1243.84 351.56 1233.3"/><polygon class="cls-14" points="286.43 1303.69 286.43 1368.82 296.96 1368.82 351.56 1368.82 351.56 1314.23 351.56 1303.69 286.43 1303.69"/><polygon class="cls-15" points="351.56 1368.82 296.96 1368.82 286.43 1368.82 296.96 1379.35 362.09 1379.35 351.56 1368.82"/><polygon class="cls-16" points="351.56 1303.69 351.56 1314.23 351.56 1368.82 362.09 1379.35 362.09 1314.23 351.56 1303.69"/><polygon class="cls-14" points="356.82 1303.69 356.82 1368.82 367.36 1368.82 421.95 1368.82 421.95 1314.23 421.95 1303.69 356.82 1303.69"/><polygon class="cls-15" points="421.95 1368.82 367.36 1368.82 356.82 1368.82 367.36 1379.35 432.48 1379.35 421.95 1368.82"/><polygon class="cls-16" points="421.95 1303.69 421.95 1314.23 421.95 1368.82 432.48 1379.35 432.48 1314.23 421.95 1303.69"/><polygon class="cls-14" points="1033.87 80.49 1033.87 145.61 1044.4 145.61 1099 145.61 1099 91.02 1099 80.49 1033.87 80.49"/><polygon class="cls-15" points="1099 145.61 1044.4 145.61 1033.87 145.61 1044.4 156.15 1109.53 156.15 1099 145.61"/><polygon class="cls-16" points="1099 80.49 1099 91.02 1099 145.61 1109.53 156.15 1109.53 91.02 1099 80.49"/><polygon class="cls-14" points="1033.87 150.88 1033.87 216.01 1044.4 216.01 1099 216.01 1099 161.41 1099 150.88 1033.87 150.88"/><polygon class="cls-15" points="1099 216.01 1044.4 216.01 1033.87 216.01 1044.4 226.54 1109.53 226.54 1099 216.01"/><polygon class="cls-16" points="1099 150.88 1099 161.41 1099 216.01 1109.53 226.54 1109.53 161.41 1099 150.88"/><polygon class="cls-14" points="1033.87 221.27 1033.87 286.4 1044.4 286.4 1099 286.4 1099 231.8 1099 221.27 1033.87 221.27"/><polygon class="cls-15" points="1099 286.4 1044.4 286.4 1033.87 286.4 1044.4 296.93 1109.53 296.93 1099 286.4"/><polygon class="cls-16" points="1099 221.27 1099 231.8 1099 286.4 1109.53 296.93 1109.53 231.8 1099 221.27"/><polygon class="cls-14" points="1104.26 221.27 1104.26 286.4 1114.8 286.4 1169.39 286.4 1169.39 231.8 1169.39 221.27 1104.26 221.27"/><polygon class="cls-15" points="1169.39 286.4 1114.8 286.4 1104.26 286.4 1114.8 296.93 1179.92 296.93 1169.39 286.4"/><polygon class="cls-16" points="1169.39 221.27 1169.39 231.8 1169.39 286.4 1179.92 296.93 1179.92 231.8 1169.39 221.27"/><polygon class="cls-14" points="1290.71 364.56 1290.71 429.69 1301.24 429.69 1355.84 429.69 1355.84 375.1 1355.84 364.56 1290.71 364.56"/><polygon class="cls-15" points="1355.84 429.69 1301.24 429.69 1290.71 429.69 1301.24 440.22 1366.37 440.22 1355.84 429.69"/><polygon class="cls-16" points="1355.84 364.56 1355.84 375.1 1355.84 429.69 1366.37 440.22 1366.37 375.1 1355.84 364.56"/><polygon class="cls-14" points="1290.71 434.95 1290.71 500.08 1301.24 500.08 1355.84 500.08 1355.84 445.49 1355.84 434.95 1290.71 434.95"/><polygon class="cls-15" points="1355.84 500.08 1301.24 500.08 1290.71 500.08 1301.24 510.61 1366.37 510.61 1355.84 500.08"/><polygon class="cls-16" points="1355.84 434.95 1355.84 445.49 1355.84 500.08 1366.37 510.61 1366.37 445.49 1355.84 434.95"/><polygon class="cls-14" points="1290.71 505.35 1290.71 570.47 1301.24 570.47 1355.84 570.47 1355.84 515.88 1355.84 505.35 1290.71 505.35"/><polygon class="cls-15" points="1355.84 570.47 1301.24 570.47 1290.71 570.47 1301.24 581.01 1366.37 581.01 1355.84 570.47"/><polygon class="cls-16" points="1355.84 505.35 1355.84 515.88 1355.84 570.47 1366.37 581.01 1366.37 515.88 1355.84 505.35"/><polygon class="cls-14" points="1361.1 505.35 1361.1 570.47 1371.64 570.47 1426.23 570.47 1426.23 515.88 1426.23 505.35 1361.1 505.35"/><polygon class="cls-15" points="1426.23 570.47 1371.64 570.47 1361.1 570.47 1371.64 581.01 1436.76 581.01 1426.23 570.47"/><polygon class="cls-16" points="1426.23 505.35 1426.23 515.88 1426.23 570.47 1436.76 581.01 1436.76 515.88 1426.23 505.35"/><polygon class="cls-14" points="1187.38 994.83 1187.38 1059.95 1197.91 1059.95 1252.5 1059.95 1252.5 1005.36 1252.5 994.83 1187.38 994.83"/><polygon class="cls-15" points="1252.5 1059.95 1197.91 1059.95 1187.38 1059.95 1197.91 1070.49 1263.04 1070.49 1252.5 1059.95"/><polygon class="cls-16" points="1252.5 994.83 1252.5 1005.36 1252.5 1059.95 1263.04 1070.49 1263.04 1005.36 1252.5 994.83"/><polygon class="cls-14" points="1187.38 1065.22 1187.38 1130.35 1197.91 1130.35 1252.5 1130.35 1252.5 1075.75 1252.5 1065.22 1187.38 1065.22"/><polygon class="cls-15" points="1252.5 1130.35 1197.91 1130.35 1187.38 1130.35 1197.91 1140.88 1263.04 1140.88 1252.5 1130.35"/><polygon class="cls-16" points="1252.5 1065.22 1252.5 1075.75 1252.5 1130.35 1263.04 1140.88 1263.04 1075.75 1252.5 1065.22"/><polygon class="cls-14" points="1187.38 1135.61 1187.38 1200.74 1197.91 1200.74 1252.5 1200.74 1252.5 1146.15 1252.5 1135.61 1187.38 1135.61"/><polygon class="cls-15" points="1252.5 1200.74 1197.91 1200.74 1187.38 1200.74 1197.91 1211.27 1263.04 1211.27 1252.5 1200.74"/><polygon class="cls-16" points="1252.5 1135.61 1252.5 1146.15 1252.5 1200.74 1263.04 1211.27 1263.04 1146.15 1252.5 1135.61"/><polygon class="cls-14" points="1257.77 1135.61 1257.77 1200.74 1268.3 1200.74 1322.89 1200.74 1322.89 1146.15 1322.89 1135.61 1257.77 1135.61"/><polygon class="cls-15" points="1322.89 1200.74 1268.3 1200.74 1257.77 1200.74 1268.3 1211.27 1333.43 1211.27 1322.89 1200.74"/><polygon class="cls-16" points="1322.89 1135.61 1322.89 1146.15 1322.89 1200.74 1333.43 1211.27 1333.43 1146.15 1322.89 1135.61"/><polygon class="cls-14" points="1829.07 883.97 1829.07 949.1 1839.61 949.1 1894.2 949.1 1894.2 894.51 1894.2 883.97 1829.07 883.97"/><polygon class="cls-15" points="1894.2 949.1 1839.61 949.1 1829.07 949.1 1839.61 959.63 1904.73 959.63 1894.2 949.1"/><polygon class="cls-16" points="1894.2 883.97 1894.2 894.51 1894.2 949.1 1904.73 959.63 1904.73 894.51 1894.2 883.97"/><polygon class="cls-14" points="1829.07 954.37 1829.07 1019.49 1839.61 1019.49 1894.2 1019.49 1894.2 964.9 1894.2 954.37 1829.07 954.37"/><polygon class="cls-15" points="1894.2 1019.49 1839.61 1019.49 1829.07 1019.49 1839.61 1030.03 1904.73 1030.03 1894.2 1019.49"/><polygon class="cls-16" points="1894.2 954.37 1894.2 964.9 1894.2 1019.49 1904.73 1030.03 1904.73 964.9 1894.2 954.37"/><polygon class="cls-14" points="1829.07 1024.76 1829.07 1089.88 1839.61 1089.88 1894.2 1089.88 1894.2 1035.29 1894.2 1024.76 1829.07 1024.76"/><polygon class="cls-15" points="1894.2 1089.88 1839.61 1089.88 1829.07 1089.88 1839.61 1100.42 1904.73 1100.42 1894.2 1089.88"/><polygon class="cls-16" points="1894.2 1024.76 1894.2 1035.29 1894.2 1089.88 1904.73 1100.42 1904.73 1035.29 1894.2 1024.76"/><polygon class="cls-14" points="1899.46 1024.76 1899.46 1089.88 1910 1089.88 1964.59 1089.88 1964.59 1035.29 1964.59 1024.76 1899.46 1024.76"/><polygon class="cls-15" points="1964.59 1089.88 1910 1089.88 1899.46 1089.88 1910 1100.42 1975.12 1100.42 1964.59 1089.88"/><polygon class="cls-16" points="1964.59 1024.76 1964.59 1035.29 1964.59 1089.88 1975.12 1100.42 1975.12 1035.29 1964.59 1024.76"/><polygon class="cls-14" points="1964.59 1346.79 1964.59 1411.92 1975.12 1411.92 2029.72 1411.92 2029.72 1357.32 2029.72 1346.79 1964.59 1346.79"/><polygon class="cls-15" points="2029.72 1411.92 1975.12 1411.92 1964.59 1411.92 1975.12 1422.45 2040.25 1422.45 2029.72 1411.92"/><polygon class="cls-16" points="2029.72 1346.79 2029.72 1357.32 2029.72 1411.92 2040.25 1422.45 2040.25 1357.32 2029.72 1346.79"/><polygon class="cls-14" points="1964.59 1417.18 1964.59 1482.31 1975.12 1482.31 2029.72 1482.31 2029.72 1427.71 2029.72 1417.18 1964.59 1417.18"/><polygon class="cls-15" points="2029.72 1482.31 1975.12 1482.31 1964.59 1482.31 1975.12 1492.84 2040.25 1492.84 2029.72 1482.31"/><polygon class="cls-16" points="2029.72 1417.18 2029.72 1427.71 2029.72 1482.31 2040.25 1492.84 2040.25 1427.71 2029.72 1417.18"/><polygon class="cls-14" points="1964.59 1487.58 1964.59 1552.7 1975.12 1552.7 2029.72 1552.7 2029.72 1498.11 2029.72 1487.58 1964.59 1487.58"/><polygon class="cls-15" points="2029.72 1552.7 1975.12 1552.7 1964.59 1552.7 1975.12 1563.23 2040.25 1563.23 2029.72 1552.7"/><polygon class="cls-16" points="2029.72 1487.58 2029.72 1498.11 2029.72 1552.7 2040.25 1563.23 2040.25 1498.11 2029.72 1487.58"/><polygon class="cls-14" points="2034.98 1487.58 2034.98 1552.7 2045.52 1552.7 2100.11 1552.7 2100.11 1498.11 2100.11 1487.58 2034.98 1487.58"/><polygon class="cls-15" points="2100.11 1552.7 2045.52 1552.7 2034.98 1552.7 2045.52 1563.23 2110.64 1563.23 2100.11 1552.7"/><polygon class="cls-16" points="2100.11 1487.58 2100.11 1498.11 2100.11 1552.7 2110.64 1563.23 2110.64 1498.11 2100.11 1487.58"/><polygon class="cls-14" points="1891.57 37.39 1891.57 102.52 1902.1 102.52 1956.69 102.52 1956.69 47.92 1956.69 37.39 1891.57 37.39"/><polygon class="cls-15" points="1956.69 102.52 1902.1 102.52 1891.57 102.52 1902.1 113.05 1967.22 113.05 1956.69 102.52"/><polygon class="cls-16" points="1956.69 37.39 1956.69 47.92 1956.69 102.52 1967.22 113.05 1967.22 47.92 1956.69 37.39"/><polygon class="cls-14" points="1891.57 107.78 1891.57 172.91 1902.1 172.91 1956.69 172.91 1956.69 118.32 1956.69 107.78 1891.57 107.78"/><polygon class="cls-15" points="1956.69 172.91 1902.1 172.91 1891.57 172.91 1902.1 183.44 1967.22 183.44 1956.69 172.91"/><polygon class="cls-16" points="1956.69 107.78 1956.69 118.32 1956.69 172.91 1967.22 183.44 1967.22 118.32 1956.69 107.78"/><polygon class="cls-14" points="1891.57 178.18 1891.57 243.3 1902.1 243.3 1956.69 243.3 1956.69 188.71 1956.69 178.18 1891.57 178.18"/><polygon class="cls-15" points="1956.69 243.3 1902.1 243.3 1891.57 243.3 1902.1 253.84 1967.22 253.84 1956.69 243.3"/><polygon class="cls-16" points="1956.69 178.18 1956.69 188.71 1956.69 243.3 1967.22 253.84 1967.22 188.71 1956.69 178.18"/><polygon class="cls-14" points="1961.96 178.18 1961.96 243.3 1972.49 243.3 2027.09 243.3 2027.09 188.71 2027.09 178.18 1961.96 178.18"/><polygon class="cls-15" points="2027.09 243.3 1972.49 243.3 1961.96 243.3 1972.49 253.84 2037.62 253.84 2027.09 243.3"/><polygon class="cls-16" points="2027.09 178.18 2027.09 188.71 2027.09 243.3 2037.62 253.84 2037.62 188.71 2027.09 178.18"/><polygon class="cls-17" points="494.43 644.97 494.43 710.1 504.96 710.1 559.56 710.1 559.56 655.5 559.56 644.97 494.43 644.97"/><polygon class="cls-18" points="559.56 710.1 504.96 710.1 494.43 710.1 504.96 720.63 570.09 720.63 559.56 710.1"/><polygon class="cls-19" points="559.56 644.97 559.56 655.5 559.56 710.1 570.09 720.63 570.09 655.5 559.56 644.97"/><polygon class="cls-17" points="494.43 715.36 494.43 780.49 504.96 780.49 559.56 780.49 559.56 725.89 559.56 715.36 494.43 715.36"/><polygon class="cls-18" points="559.56 780.49 504.96 780.49 494.43 780.49 504.96 791.02 570.09 791.02 559.56 780.49"/><polygon class="cls-19" points="559.56 715.36 559.56 725.89 559.56 780.49 570.09 791.02 570.09 725.89 559.56 715.36"/><polygon class="cls-17" points="564.82 644.97 564.82 710.1 575.35 710.1 629.95 710.1 629.95 655.5 629.95 644.97 564.82 644.97"/><polygon class="cls-18" points="629.95 710.1 575.35 710.1 564.82 710.1 575.35 720.63 640.48 720.63 629.95 710.1"/><polygon class="cls-19" points="629.95 644.97 629.95 655.5 629.95 710.1 640.48 720.63 640.48 655.5 629.95 644.97"/><polygon class="cls-17" points="564.82 715.36 564.82 780.49 575.35 780.49 629.95 780.49 629.95 725.89 629.95 715.36 564.82 715.36"/><polygon class="cls-18" points="629.95 780.49 575.35 780.49 564.82 780.49 575.35 791.02 640.48 791.02 629.95 780.49"/><polygon class="cls-19" points="629.95 715.36 629.95 725.89 629.95 780.49 640.48 791.02 640.48 725.89 629.95 715.36"/><polygon class="cls-17" points="954.84 1203.37 954.84 1268.5 965.37 1268.5 1019.97 1268.5 1019.97 1213.9 1019.97 1203.37 954.84 1203.37"/><polygon class="cls-18" points="1019.97 1268.5 965.37 1268.5 954.84 1268.5 965.37 1279.03 1030.5 1279.03 1019.97 1268.5"/><polygon class="cls-19" points="1019.97 1203.37 1019.97 1213.9 1019.97 1268.5 1030.5 1279.03 1030.5 1213.9 1019.97 1203.37"/><polygon class="cls-17" points="954.84 1273.77 954.84 1338.89 965.37 1338.89 1019.97 1338.89 1019.97 1284.3 1019.97 1273.77 954.84 1273.77"/><polygon class="cls-18" points="1019.97 1338.89 965.37 1338.89 954.84 1338.89 965.37 1349.42 1030.5 1349.42 1019.97 1338.89"/><polygon class="cls-19" points="1019.97 1273.77 1019.97 1284.3 1019.97 1338.89 1030.5 1349.42 1030.5 1284.3 1019.97 1273.77"/><polygon class="cls-17" points="1025.23 1203.37 1025.23 1268.5 1035.76 1268.5 1090.36 1268.5 1090.36 1213.9 1090.36 1203.37 1025.23 1203.37"/><polygon class="cls-18" points="1090.36 1268.5 1035.76 1268.5 1025.23 1268.5 1035.76 1279.03 1100.89 1279.03 1090.36 1268.5"/><polygon class="cls-19" points="1090.36 1203.37 1090.36 1213.9 1090.36 1268.5 1100.89 1279.03 1100.89 1213.9 1090.36 1203.37"/><polygon class="cls-17" points="1025.23 1273.77 1025.23 1338.89 1035.76 1338.89 1090.36 1338.89 1090.36 1284.3 1090.36 1273.77 1025.23 1273.77"/><polygon class="cls-18" points="1090.36 1338.89 1035.76 1338.89 1025.23 1338.89 1035.76 1349.42 1100.89 1349.42 1090.36 1338.89"/><polygon class="cls-19" points="1090.36 1273.77 1090.36 1284.3 1090.36 1338.89 1100.89 1349.42 1100.89 1284.3 1090.36 1273.77"/><polygon class="cls-17" points="1902.1 296.8 1902.1 361.93 1912.63 361.93 1967.22 361.93 1967.22 307.33 1967.22 296.8 1902.1 296.8"/><polygon class="cls-18" points="1967.22 361.93 1912.63 361.93 1902.1 361.93 1912.63 372.46 1977.76 372.46 1967.22 361.93"/><polygon class="cls-19" points="1967.22 296.8 1967.22 307.33 1967.22 361.93 1977.76 372.46 1977.76 307.33 1967.22 296.8"/><polygon class="cls-17" points="1902.1 367.2 1902.1 432.32 1912.63 432.32 1967.22 432.32 1967.22 377.73 1967.22 367.2 1902.1 367.2"/><polygon class="cls-18" points="1967.22 432.32 1912.63 432.32 1902.1 432.32 1912.63 442.85 1977.76 442.85 1967.22 432.32"/><polygon class="cls-19" points="1967.22 367.2 1967.22 377.73 1967.22 432.32 1977.76 442.85 1977.76 377.73 1967.22 367.2"/><polygon class="cls-17" points="1972.49 296.8 1972.49 361.93 1983.02 361.93 2037.62 361.93 2037.62 307.33 2037.62 296.8 1972.49 296.8"/><polygon class="cls-18" points="2037.62 361.93 1983.02 361.93 1972.49 361.93 1983.02 372.46 2048.15 372.46 2037.62 361.93"/><polygon class="cls-19" points="2037.62 296.8 2037.62 307.33 2037.62 361.93 2048.15 372.46 2048.15 307.33 2037.62 296.8"/><polygon class="cls-17" points="1972.49 367.2 1972.49 432.32 1983.02 432.32 2037.62 432.32 2037.62 377.73 2037.62 367.2 1972.49 367.2"/><polygon class="cls-18" points="2037.62 432.32 1983.02 432.32 1972.49 432.32 1983.02 442.85 2048.15 442.85 2037.62 432.32"/><polygon class="cls-19" points="2037.62 367.2 2037.62 377.73 2037.62 432.32 2048.15 442.85 2048.15 377.73 2037.62 367.2"/><polygon class="cls-17" points="1662.91 1428.68 1662.91 1493.81 1673.45 1493.81 1728.04 1493.81 1728.04 1439.21 1728.04 1428.68 1662.91 1428.68"/><polygon class="cls-18" points="1728.04 1493.81 1673.45 1493.81 1662.91 1493.81 1673.45 1504.34 1738.57 1504.34 1728.04 1493.81"/><polygon class="cls-19" points="1728.04 1428.68 1728.04 1439.21 1728.04 1493.81 1738.57 1504.34 1738.57 1439.21 1728.04 1428.68"/><polygon class="cls-17" points="1662.91 1499.08 1662.91 1564.2 1673.45 1564.2 1728.04 1564.2 1728.04 1509.61 1728.04 1499.08 1662.91 1499.08"/><polygon class="cls-18" points="1728.04 1564.2 1673.45 1564.2 1662.91 1564.2 1673.45 1574.73 1738.57 1574.73 1728.04 1564.2"/><polygon class="cls-19" points="1728.04 1499.08 1728.04 1509.61 1728.04 1564.2 1738.57 1574.73 1738.57 1509.61 1728.04 1499.08"/><polygon class="cls-17" points="1733.31 1428.68 1733.31 1493.81 1743.84 1493.81 1798.43 1493.81 1798.43 1439.21 1798.43 1428.68 1733.31 1428.68"/><polygon class="cls-18" points="1798.43 1493.81 1743.84 1493.81 1733.31 1493.81 1743.84 1504.34 1808.96 1504.34 1798.43 1493.81"/><polygon class="cls-19" points="1798.43 1428.68 1798.43 1439.21 1798.43 1493.81 1808.96 1504.34 1808.96 1439.21 1798.43 1428.68"/><polygon class="cls-17" points="1733.31 1499.08 1733.31 1564.2 1743.84 1564.2 1798.43 1564.2 1798.43 1509.61 1798.43 1499.08 1733.31 1499.08"/><polygon class="cls-18" points="1798.43 1564.2 1743.84 1564.2 1733.31 1564.2 1743.84 1574.73 1808.96 1574.73 1798.43 1564.2"/><polygon class="cls-19" points="1798.43 1499.08 1798.43 1509.61 1798.43 1564.2 1808.96 1574.73 1808.96 1509.61 1798.43 1499.08"/><polygon class="cls-17" points="1694.58 632.33 1694.58 697.46 1705.11 697.46 1759.7 697.46 1759.7 642.87 1759.7 632.33 1694.58 632.33"/><polygon class="cls-18" points="1759.7 697.46 1705.11 697.46 1694.58 697.46 1705.11 707.99 1770.24 707.99 1759.7 697.46"/><polygon class="cls-19" points="1759.7 632.33 1759.7 642.87 1759.7 697.46 1770.24 707.99 1770.24 642.87 1759.7 632.33"/><polygon class="cls-17" points="1694.58 702.73 1694.58 767.85 1705.11 767.85 1759.7 767.85 1759.7 713.26 1759.7 702.73 1694.58 702.73"/><polygon class="cls-18" points="1759.7 767.85 1705.11 767.85 1694.58 767.85 1705.11 778.38 1770.24 778.38 1759.7 767.85"/><polygon class="cls-19" points="1759.7 702.73 1759.7 713.26 1759.7 767.85 1770.24 778.38 1770.24 713.26 1759.7 702.73"/><polygon class="cls-17" points="1764.97 632.33 1764.97 697.46 1775.5 697.46 1830.1 697.46 1830.1 642.87 1830.1 632.33 1764.97 632.33"/><polygon class="cls-18" points="1830.1 697.46 1775.5 697.46 1764.97 697.46 1775.5 707.99 1840.63 707.99 1830.1 697.46"/><polygon class="cls-19" points="1830.1 632.33 1830.1 642.87 1830.1 697.46 1840.63 707.99 1840.63 642.87 1830.1 632.33"/><polygon class="cls-17" points="1764.97 702.73 1764.97 767.85 1775.5 767.85 1830.1 767.85 1830.1 713.26 1830.1 702.73 1764.97 702.73"/><polygon class="cls-18" points="1830.1 767.85 1775.5 767.85 1764.97 767.85 1775.5 778.38 1840.63 778.38 1830.1 767.85"/><polygon class="cls-19" points="1830.1 702.73 1830.1 713.26 1830.1 767.85 1840.63 778.38 1840.63 713.26 1830.1 702.73"/></svg>