<svg id="Layer_1" data-name="Layer 1" xmlns="http://www.w3.org/2000/svg" viewBox="0 0 500 500"><defs><style>.cls-1{fill:#fff;}</style></defs><title>Artboard 1</title><path class="cls-1" d="M142.66,397.07H108.58L100.42,423H89.5l26.64-79.92q.72-2.88,4-2.88h11q3.24,0,4,2.88L161.74,423H150.82ZM139.78,388l-10.44-32.88q-1.08-3.12-2-6.72h-3.36l-2,6.72L111.46,388Z"/><path class="cls-1" d="M182.26,339v21.84a59.54,59.54,0,0,1-1.08,13q10.44-10.68,22.56-10.68,10.92,0,16,7.14t5.1,23.34q0,15.84-5.76,23.34t-20.16,7.5a80.33,80.33,0,0,1-26.88-4.2V339Zm0,41.64v33.12a54.23,54.23,0,0,0,16.44,2q8.52-.12,12-5t3.6-17.22q-.12-12.36-3-17T200.14,372a17.26,17.26,0,0,0-8.1,2A69.87,69.87,0,0,0,182.26,380.63Z"/><path class="cls-1" d="M265.42,363.11q15.12,0,21.3,7t6.18,23.76q0,16.8-6.18,23.76t-21.3,7q-15,0-21.24-7t-6.24-23.76q0-16.8,6.24-23.76T265.42,363.11Zm13.26,13.32q-3.66-4.68-13.26-4.68t-13.2,4.68q-3.6,4.68-3.6,17.4t3.6,17.4q3.6,4.68,13.2,4.68t13.26-4.68q3.66-4.68,3.66-17.4T278.68,376.43Z"/><path class="cls-1" d="M358.54,364.55V423h-8.16l-.72-8.4q-13.2,10-25.2,10-16,0-16-16.08V364.55h10.2v41q-.12,5.52,2,7.8t7.2,2.28a22.47,22.47,0,0,0,9-2,82.41,82.41,0,0,0,11.4-6.42V364.55Z"/><path class="cls-1" d="M391.9,372.59v34.32q0,4.2,1.8,6t6.12,1.8h8.88l1.2,7.8a49,49,0,0,1-13.2,1.56q-7.32,0-11.16-4.08t-3.84-11.76V372.59H371.14v-7.44l10.56-.48v-17.4h10.2v17.28h18.6v8Z"/><path class="cls-1" d="M243.42,203.81c0-1.73-.08-3-.08-3.9a36.54,36.54,0,0,1,2.17-13.24,30.26,30.26,0,0,1,5.14-8.47,97.43,97.43,0,0,1,9.37-9.07q6.76-6,8.79-9.52a15.31,15.31,0,0,0,2-7.74,18,18,0,0,0-5.93-13.34,20.06,20.06,0,0,0-14.54-5.75,19.58,19.58,0,0,0-13.89,5.2q-5.57,5.22-7.3,16.28l-13.39-1.59q1.82-14.83,10.75-22.72t23.61-7.88q15.56,0,24.82,8.46T284.22,151a26,26,0,0,1-3.26,12.8q-3.25,5.87-12.73,14.25-6.36,5.64-8.32,8.32a18.36,18.36,0,0,0-2.89,6.15,51.37,51.37,0,0,0-1.09,11.28Zm-.8,26.12V215.1h14.83v14.83Z"/><path class="cls-1" d="M250,276.73A100.73,100.73,0,1,1,350.73,176,100.85,100.85,0,0,1,250,276.73ZM250,98.8A77.2,77.2,0,1,0,327.2,176,77.29,77.29,0,0,0,250,98.8Z"/></svg>