<svg id="Layer_1" data-name="Layer 1" xmlns="http://www.w3.org/2000/svg" viewBox="0 0 500 500"><defs><style>.cls-1{fill:#fff;}</style></defs><title>Artboard 1</title><rect class="cls-1" x="133.99" y="133.88" width="25.27" height="84.24" rx="12.64"/><rect class="cls-1" x="133.99" y="133.39" width="25.27" height="84.24" rx="12.64" transform="translate(322.13 28.88) rotate(90)"/><circle class="cls-1" cx="316.46" cy="176" r="17.92"/><circle class="cls-1" cx="377.57" cy="176" r="17.92"/><path class="cls-1" d="M80.62,413.93l1.08,7.92q-10,2.76-24.24,2.76-17.88,0-25.2-9.6t-7.32-33.24q0-23.64,7.32-33.24t25.2-9.6A94.7,94.7,0,0,1,80,341.33l-1.08,8q-10.8-1.08-21.48-1.08-12.12,0-16.74,7.26T36.1,381.77q0,19,4.62,26.22t16.74,7.26A168.38,168.38,0,0,0,80.62,413.93Z"/><path class="cls-1" d="M120.1,363.29q15.12,0,21.3,7T147.58,394q0,16.8-6.18,23.76t-21.3,7q-15,0-21.24-7T92.62,394q0-16.8,6.24-23.76T120.1,363.29Zm13.26,13.32q-3.66-4.68-13.26-4.68t-13.2,4.68q-3.6,4.68-3.6,17.4t3.6,17.4q3.6,4.68,13.2,4.68t13.26-4.68Q137,406.73,137,394T133.36,376.61Z"/><path class="cls-1" d="M172.18,364.73l.72,9.24q14.16-10.68,26.16-10.68,15.84,0,15.84,16.08v43.8H204.7V382.25q0-5.76-1.92-8t-6.48-2.28a23.63,23.63,0,0,0-9.66,2.16,119.45,119.45,0,0,0-12.9,7.08v42h-10.2V364.73Z"/><path class="cls-1" d="M247.9,372.77v34.32q0,4.2,1.8,6t6.12,1.8h8.88l1.2,7.8a49,49,0,0,1-13.2,1.56q-7.32,0-11.16-4.08t-3.84-11.76V372.77H227.14v-7.44l10.56-.48v-17.4h10.2v17.28h18.6v8Z"/><path class="cls-1" d="M315.58,363.29l-1.2,9.6H311a26.57,26.57,0,0,0-9.18,1.74,131.66,131.66,0,0,0-12.66,5.7v42.84H279V364.73h7.92L288,374q13.56-10.68,25-10.68Z"/><path class="cls-1" d="M350.26,363.29q15.12,0,21.3,7T377.74,394q0,16.8-6.18,23.76t-21.3,7q-15,0-21.24-7T322.78,394q0-16.8,6.24-23.76T350.26,363.29Zm13.26,13.32q-3.66-4.68-13.26-4.68t-13.2,4.68q-3.6,4.68-3.6,17.4t3.6,17.4q3.6,4.68,13.2,4.68t13.26-4.68q3.66-4.68,3.66-17.4T363.52,376.61Z"/><path class="cls-1" d="M404,339.17v67.92q-.12,3.84,1.92,5.82t6,2h5.64l1.2,7.8q-3.24,1.56-10.68,1.56-6.6,0-10.44-3.9t-3.84-11v-70.2Z"/><path class="cls-1" d="M456,399.53l-16.8-3.84Q432,394,429,390.29t-3-10.92q0-9.72,5.1-13t17.7-3.06a193,193,0,0,1,24.6,1.8l-.84,7.44q-18.24-.6-22.2-.6-8.88-.12-11.64,1.08t-2.76,6.36q0,4.2,1.86,5.76t6.66,2.64l17,3.84q7.2,1.8,10.38,5.34t3.18,10.74q0,10.2-5.64,13.5t-19.32,3.3a147.65,147.65,0,0,1-22.92-1.68l.72-7.44q10.2.6,20.16.48,10.2,0,13.68-1.56t3.48-6.6q0-4-2.1-5.46A21.58,21.58,0,0,0,456,399.53Z"/><path class="cls-1" d="M423.4,276.59H76.6a22.52,22.52,0,0,1-22.5-22.5V97.91a22.52,22.52,0,0,1,22.5-22.5H423.4a22.52,22.52,0,0,1,22.5,22.5V254.09A22.52,22.52,0,0,1,423.4,276.59Zm-344.3-25H420.9V100.41H79.1Z"/></svg>