<svg id="Layer_1" data-name="Layer 1" xmlns="http://www.w3.org/2000/svg" viewBox="0 0 2500 1000"><defs><style>.cls-1{fill:#fff;}.cls-2{fill:#4c87c1;}.cls-3{fill:#255c9e;}.cls-4{fill:#152760;}</style></defs><title>Artboard 1</title><path class="cls-1" d="M870.24,671.85H783.71q2.65,32,15.63,43.07T842.41,726a465.84,465.84,0,0,0,64.42-4.58l3.43,21.73q-24.78,10.29-72,10.29-48,0-68.42-22.3t-20.4-75.66q0-53.75,19.83-75.28t65.56-21.54q41.54,0,60.6,15.06t19.06,45.55Q915.22,671.86,870.24,671.85Zm-86.91-25.16h78.52q20.21,0,20.2-27.44-.37-17.91-10.67-25.54t-35.07-7.62q-29.35,0-40.78,12.77T783.33,646.69Z"/><path class="cls-1" d="M1009.74,588.75v109q0,13.35,5.72,19.06t19.44,5.72h28.21l3.81,24.77q-17.54,4.95-41.93,5-23.25,0-35.45-13T977.34,702V588.75H943.8V565.12l33.54-1.52V508.33h32.4v54.89h59.09v25.53Z"/><path class="cls-1" d="M1224.73,558.64l-3.82,30.5h-10.67a84.53,84.53,0,0,0-29.16,5.52q-15.06,5.54-40.21,18.11V748.85h-32.4V563.22h25.15l3.43,29.35q43.08-33.93,79.29-33.93Z"/><path class="cls-1" d="M1334.89,558.64q48,0,67.65,22.11t19.64,75.47q0,53.37-19.64,75.48t-67.65,22.1q-47.66,0-67.47-22.1t-19.82-75.48q0-53.36,19.82-75.47T1334.89,558.64ZM1377,601q-11.64-14.87-42.12-14.86T1293,601q-11.45,14.87-11.44,55.27T1293,711.49q11.43,14.87,41.93,14.87T1377,711.49q11.61-14.87,11.62-55.27T1377,601Z"/><path class="cls-1" d="M1499.55,563.22l1.91,29.35q39.26-33.93,75.85-33.93,38.88,0,46.89,32.78,37.72-32.77,74.71-32.78,24,0,36.78,13t12.77,38.12V748.85h-32v-130q-.37-17.16-7-25t-21.92-7.81a57.63,57.63,0,0,0-25.73,6.09q-12.39,6.11-35.26,22.88V748.85h-31.25v-130q0-17.54-7.06-25.16t-21.91-7.62a57.6,57.6,0,0,0-25.73,6.09q-12.39,6.11-35.26,22.49V748.85h-32.4V563.22Z"/><path class="cls-1" d="M1816.69,484.31h15.24q9.91,0,9.91,9.91V516q0,9.91-9.91,9.91h-15.24q-9.92,0-9.91-9.91V494.22Q1806.78,484.32,1816.69,484.31Zm23.63,264.54h-32V563.22h32Z"/><path class="cls-1" d="M1928.75,563.22l2.28,29.35q45-33.93,83.1-33.93,50.31,0,50.32,51.08V748.85h-32.4v-130q0-18.3-6.1-25.54t-20.59-7.24a75,75,0,0,0-30.68,6.86q-15.43,6.85-41,22.49V748.85h-32.4V563.22Z"/><path class="cls-1" d="M2201.29,558.64q48,0,67.65,22.11t19.64,75.47q0,53.37-19.64,75.48t-67.65,22.1q-47.65,0-67.47-22.1T2114,656.22q0-53.36,19.82-75.47T2201.29,558.64ZM2243.41,601q-11.64-14.87-42.12-14.86T2159.36,601q-11.45,14.87-11.44,55.27t11.44,55.27q11.43,14.87,41.93,14.87t42.12-14.87Q2255,696.63,2255,656.22T2243.41,601Z"/><polygon class="cls-2" points="910.32 291.67 684.02 291.67 487.42 291.67 254.99 291.67 254.99 488.27 487.42 488.27 487.42 750.4 684.02 750.4 684.02 488.27 910.32 488.27 910.32 291.67"/><polygon class="cls-3" points="866.76 246.2 640.46 246.2 443.86 246.2 211.42 246.2 211.42 442.8 443.86 442.8 443.86 704.93 640.46 704.93 640.46 442.8 866.76 442.8 866.76 246.2"/><polyline class="cls-4" points="211.42 442.8 254.99 488.27 443.86 488.27 443.86 442.8"/><polyline class="cls-2" points="866.76 442.8 866.76 246.2 910.32 291.67"/><polyline class="cls-4" points="443.86 704.93 487.42 750.4 684.02 750.4 640.46 704.93"/><polygon class="cls-4" points="640.46 442.8 684.02 488.27 910.32 488.27 866.76 442.8 640.46 442.8"/></svg>